G04*
G04 #@! TF.GenerationSoftware,Altium Limited,Altium Designer,24.2.2 (26)*
G04*
G04 Layer_Physical_Order=1*
G04 Layer_Color=255*
%FSLAX44Y44*%
%MOMM*%
G71*
G04*
G04 #@! TF.SameCoordinates,A8C72FA6-E4A7-4B70-B5D1-2EACB2D35129*
G04*
G04*
G04 #@! TF.FilePolarity,Positive*
G04*
G01*
G75*
%ADD14R,1.4000X0.6000*%
%ADD15R,0.5000X0.6000*%
%ADD16R,1.5000X0.6500*%
%ADD17R,0.6000X0.5000*%
%ADD18R,0.4500X1.4250*%
%ADD19R,0.6500X1.0620*%
%ADD28C,0.2540*%
%ADD29C,1.7780*%
%ADD30C,0.8128*%
G36*
X269376Y316230D02*
X265383Y313783D01*
X261248Y310252D01*
X257717Y306117D01*
X254876Y301481D01*
X252795Y296458D01*
X251526Y291171D01*
X251099Y285750D01*
X251526Y280329D01*
X252795Y275042D01*
X254876Y270019D01*
X257717Y265383D01*
X261248Y261248D01*
X265383Y257717D01*
X270019Y254876D01*
X275042Y252795D01*
X280329Y251526D01*
X285750Y251099D01*
X291171Y251526D01*
X296458Y252795D01*
X301481Y254876D01*
X306117Y257717D01*
X310252Y261248D01*
X313783Y265383D01*
X316230Y269376D01*
X317500Y269018D01*
Y16732D01*
X316230Y16374D01*
X313783Y20367D01*
X310252Y24502D01*
X306117Y28033D01*
X301481Y30874D01*
X296458Y32955D01*
X291171Y34224D01*
X285750Y34651D01*
X280329Y34224D01*
X275042Y32955D01*
X270019Y30874D01*
X265383Y28033D01*
X261248Y24502D01*
X257717Y20367D01*
X254876Y15731D01*
X252795Y10708D01*
X251526Y5421D01*
X251099Y0D01*
X251526Y-5421D01*
X252795Y-10708D01*
X254876Y-15731D01*
X257717Y-20367D01*
X261248Y-24502D01*
X265383Y-28033D01*
X270019Y-30874D01*
X275042Y-32955D01*
X280329Y-34224D01*
X285750Y-34651D01*
X291171Y-34224D01*
X296458Y-32955D01*
X301481Y-30874D01*
X306117Y-28033D01*
X310252Y-24502D01*
X313783Y-20367D01*
X316230Y-16374D01*
X317500Y-16732D01*
Y-269018D01*
X316230Y-269376D01*
X313783Y-265383D01*
X310252Y-261248D01*
X306117Y-257717D01*
X301481Y-254876D01*
X296458Y-252795D01*
X291171Y-251526D01*
X285750Y-251099D01*
X280329Y-251526D01*
X275042Y-252795D01*
X270019Y-254876D01*
X265383Y-257717D01*
X261248Y-261248D01*
X257717Y-265383D01*
X254876Y-270019D01*
X252795Y-275042D01*
X251526Y-280329D01*
X251099Y-285750D01*
X251526Y-291171D01*
X252795Y-296458D01*
X254876Y-301481D01*
X257717Y-306117D01*
X261248Y-310252D01*
X265383Y-313783D01*
X269376Y-316230D01*
X269018Y-317500D01*
X16732D01*
X16374Y-316230D01*
X20367Y-313783D01*
X24502Y-310252D01*
X28033Y-306117D01*
X30874Y-301481D01*
X32955Y-296458D01*
X34224Y-291171D01*
X34651Y-285750D01*
X34224Y-280329D01*
X32955Y-275042D01*
X30874Y-270019D01*
X28033Y-265383D01*
X24502Y-261248D01*
X20367Y-257717D01*
X15731Y-254876D01*
X10708Y-252795D01*
X5421Y-251526D01*
X0Y-251099D01*
X-5421Y-251526D01*
X-10708Y-252795D01*
X-15731Y-254876D01*
X-20367Y-257717D01*
X-24502Y-261248D01*
X-28033Y-265383D01*
X-30874Y-270019D01*
X-32955Y-275042D01*
X-34224Y-280329D01*
X-34651Y-285750D01*
X-34224Y-291171D01*
X-32955Y-296458D01*
X-30874Y-301481D01*
X-28033Y-306117D01*
X-24502Y-310252D01*
X-20367Y-313783D01*
X-16374Y-316230D01*
X-16732Y-317500D01*
X-269018D01*
X-269376Y-316230D01*
X-265383Y-313783D01*
X-261248Y-310252D01*
X-257717Y-306117D01*
X-254876Y-301481D01*
X-252795Y-296458D01*
X-251526Y-291171D01*
X-251099Y-285750D01*
X-251526Y-280329D01*
X-252795Y-275042D01*
X-254876Y-270019D01*
X-257717Y-265383D01*
X-261248Y-261248D01*
X-265383Y-257717D01*
X-270019Y-254876D01*
X-275042Y-252795D01*
X-280329Y-251526D01*
X-285750Y-251099D01*
X-291171Y-251526D01*
X-296458Y-252795D01*
X-301481Y-254876D01*
X-306117Y-257717D01*
X-310252Y-261248D01*
X-313783Y-265383D01*
X-316230Y-269376D01*
X-317500Y-269018D01*
Y-16732D01*
X-316230Y-16374D01*
X-313783Y-20367D01*
X-310252Y-24502D01*
X-306117Y-28033D01*
X-301481Y-30874D01*
X-296458Y-32955D01*
X-291171Y-34224D01*
X-285750Y-34651D01*
X-280329Y-34224D01*
X-275042Y-32955D01*
X-270019Y-30874D01*
X-265383Y-28033D01*
X-261248Y-24502D01*
X-257717Y-20367D01*
X-254876Y-15731D01*
X-252795Y-10708D01*
X-251526Y-5421D01*
X-251099Y0D01*
X-251526Y5421D01*
X-252795Y10708D01*
X-254876Y15731D01*
X-257717Y20367D01*
X-261248Y24502D01*
X-265383Y28033D01*
X-270019Y30874D01*
X-275042Y32955D01*
X-280329Y34224D01*
X-285750Y34651D01*
X-291171Y34224D01*
X-296458Y32955D01*
X-301481Y30874D01*
X-306117Y28033D01*
X-310252Y24502D01*
X-313783Y20367D01*
X-316230Y16374D01*
X-317500Y16732D01*
Y269018D01*
X-316230Y269376D01*
X-313783Y265383D01*
X-310252Y261248D01*
X-306117Y257717D01*
X-301481Y254876D01*
X-296458Y252795D01*
X-291171Y251526D01*
X-285750Y251099D01*
X-280329Y251526D01*
X-275042Y252795D01*
X-270019Y254876D01*
X-265383Y257717D01*
X-261248Y261248D01*
X-257717Y265383D01*
X-254876Y270019D01*
X-252795Y275042D01*
X-251526Y280329D01*
X-251099Y285750D01*
X-251526Y291171D01*
X-252795Y296458D01*
X-254876Y301481D01*
X-257717Y306117D01*
X-261248Y310252D01*
X-265383Y313783D01*
X-269376Y316230D01*
X-269018Y317500D01*
X269018D01*
X269376Y316230D01*
D02*
G37*
%LPC*%
G36*
X-135680Y160730D02*
X-144450D01*
Y156210D01*
X-135680D01*
Y160730D01*
D02*
G37*
G36*
X-146990D02*
X-155760D01*
Y156210D01*
X-146990D01*
Y160730D01*
D02*
G37*
G36*
X-135680Y153670D02*
X-144450D01*
Y149150D01*
X-135680D01*
Y153670D01*
D02*
G37*
G36*
X-146990D02*
X-155760D01*
Y149150D01*
X-146990D01*
Y153670D01*
D02*
G37*
G36*
X77571Y162814D02*
X74829D01*
X72180Y162104D01*
X69806Y160733D01*
X67867Y158794D01*
X66496Y156420D01*
X65786Y153771D01*
Y151029D01*
X66496Y148380D01*
X67867Y146006D01*
X69806Y144067D01*
X72180Y142696D01*
X74829Y141986D01*
X77571D01*
X80220Y142696D01*
X82594Y144067D01*
X84533Y146006D01*
X85904Y148380D01*
X86614Y151029D01*
Y153771D01*
X85904Y156420D01*
X84533Y158794D01*
X82594Y160733D01*
X80220Y162104D01*
X77571Y162814D01*
D02*
G37*
G36*
X-136696Y147014D02*
X-154744D01*
Y137466D01*
X-136696D01*
Y147014D01*
D02*
G37*
G36*
X-231180Y129920D02*
X-234950D01*
Y125650D01*
X-231180D01*
Y129920D01*
D02*
G37*
G36*
X-237490D02*
X-241260D01*
Y125650D01*
X-237490D01*
Y129920D01*
D02*
G37*
G36*
X-215940Y129920D02*
X-219710D01*
Y125650D01*
X-215940D01*
Y129920D01*
D02*
G37*
G36*
X-222250D02*
X-226020D01*
Y125650D01*
X-222250D01*
Y129920D01*
D02*
G37*
G36*
X-136696Y134314D02*
X-154744D01*
Y124766D01*
X-136696D01*
Y134314D01*
D02*
G37*
G36*
X77571Y137414D02*
X74829D01*
X72180Y136704D01*
X69806Y135333D01*
X67867Y133394D01*
X66496Y131020D01*
X65786Y128371D01*
Y125629D01*
X66496Y122980D01*
X67867Y120606D01*
X69806Y118667D01*
X72180Y117296D01*
X74829Y116586D01*
X77571D01*
X80220Y117296D01*
X82594Y118667D01*
X84533Y120606D01*
X85904Y122980D01*
X86614Y125629D01*
Y128371D01*
X85904Y131020D01*
X84533Y133394D01*
X82594Y135333D01*
X80220Y136704D01*
X77571Y137414D01*
D02*
G37*
G36*
X-280710Y101900D02*
X-284480D01*
Y97630D01*
X-280710D01*
Y101900D01*
D02*
G37*
G36*
X-287020D02*
X-290790D01*
Y97630D01*
X-287020D01*
Y101900D01*
D02*
G37*
G36*
X-74829Y162814D02*
X-77571D01*
X-80220Y162104D01*
X-82594Y160733D01*
X-84533Y158794D01*
X-85904Y156420D01*
X-86614Y153771D01*
Y151029D01*
X-85904Y148380D01*
X-84533Y146006D01*
X-82594Y144067D01*
X-80220Y142696D01*
X-79049Y142382D01*
Y137018D01*
X-80220Y136704D01*
X-82594Y135333D01*
X-84533Y133394D01*
X-85904Y131020D01*
X-86614Y128371D01*
Y125629D01*
X-85904Y122980D01*
X-84533Y120606D01*
X-82594Y118667D01*
X-80220Y117296D01*
X-77571Y116586D01*
X-74829D01*
X-72180Y117296D01*
X-71130Y117902D01*
X-67365Y114136D01*
Y109288D01*
X-68635Y108762D01*
X-69806Y109933D01*
X-72180Y111304D01*
X-74829Y112014D01*
X-77571D01*
X-80220Y111304D01*
X-82594Y109933D01*
X-84533Y107994D01*
X-85904Y105620D01*
X-86614Y102971D01*
Y100229D01*
X-85904Y97580D01*
X-84533Y95206D01*
X-82594Y93267D01*
X-80220Y91896D01*
X-77571Y91186D01*
X-74829D01*
X-72180Y91896D01*
X-69806Y93267D01*
X-68635Y94438D01*
X-67365Y93912D01*
Y87990D01*
X-70449Y84905D01*
X-72180Y85904D01*
X-74829Y86614D01*
X-77571D01*
X-80220Y85904D01*
X-82594Y84533D01*
X-84533Y82594D01*
X-85904Y80220D01*
X-86614Y77571D01*
Y74829D01*
X-85904Y72180D01*
X-84533Y69806D01*
X-82594Y67867D01*
X-80220Y66496D01*
X-79049Y66182D01*
Y60818D01*
X-80220Y60504D01*
X-82594Y59133D01*
X-84533Y57194D01*
X-85904Y54820D01*
X-86614Y52171D01*
Y49429D01*
X-85904Y46780D01*
X-84533Y44406D01*
X-82594Y42467D01*
X-80220Y41096D01*
X-77571Y40386D01*
X-74829D01*
X-72180Y41096D01*
X-71130Y41702D01*
X-67365Y37936D01*
Y33088D01*
X-68635Y32562D01*
X-69806Y33733D01*
X-72180Y35104D01*
X-74829Y35814D01*
X-77571D01*
X-80220Y35104D01*
X-82594Y33733D01*
X-84533Y31794D01*
X-85904Y29420D01*
X-86614Y26771D01*
Y24029D01*
X-85904Y21380D01*
X-84533Y19006D01*
X-82594Y17067D01*
X-80220Y15696D01*
X-77571Y14986D01*
X-74829D01*
X-72180Y15696D01*
X-69806Y17067D01*
X-68635Y18238D01*
X-67365Y17712D01*
Y7688D01*
X-68635Y7162D01*
X-69806Y8333D01*
X-72180Y9704D01*
X-74829Y10414D01*
X-77571D01*
X-80220Y9704D01*
X-82594Y8333D01*
X-84533Y6394D01*
X-85904Y4020D01*
X-86614Y1371D01*
Y-1371D01*
X-85904Y-4020D01*
X-84533Y-6394D01*
X-82594Y-8333D01*
X-80220Y-9704D01*
X-77571Y-10414D01*
X-74829D01*
X-72180Y-9704D01*
X-69806Y-8333D01*
X-68635Y-7162D01*
X-67365Y-7688D01*
Y-17712D01*
X-68635Y-18238D01*
X-69806Y-17067D01*
X-72180Y-15696D01*
X-74829Y-14986D01*
X-77571D01*
X-80220Y-15696D01*
X-82594Y-17067D01*
X-84533Y-19006D01*
X-85904Y-21380D01*
X-86614Y-24029D01*
Y-26771D01*
X-85904Y-29420D01*
X-84533Y-31794D01*
X-82594Y-33733D01*
X-80220Y-35104D01*
X-77571Y-35814D01*
X-74829D01*
X-72180Y-35104D01*
X-69806Y-33733D01*
X-68635Y-32562D01*
X-67365Y-33088D01*
Y-43112D01*
X-68635Y-43638D01*
X-69806Y-42467D01*
X-72180Y-41096D01*
X-74829Y-40386D01*
X-77571D01*
X-80220Y-41096D01*
X-82594Y-42467D01*
X-84533Y-44406D01*
X-85904Y-46780D01*
X-86614Y-49429D01*
Y-52171D01*
X-85904Y-54820D01*
X-84533Y-57194D01*
X-82594Y-59133D01*
X-80220Y-60504D01*
X-77571Y-61214D01*
X-74829D01*
X-72180Y-60504D01*
X-69806Y-59133D01*
X-68635Y-57962D01*
X-67365Y-58488D01*
Y-68512D01*
X-68635Y-69038D01*
X-69806Y-67867D01*
X-72180Y-66496D01*
X-74829Y-65786D01*
X-77571D01*
X-80220Y-66496D01*
X-82594Y-67867D01*
X-84533Y-69806D01*
X-85904Y-72180D01*
X-86614Y-74829D01*
Y-77571D01*
X-85904Y-80220D01*
X-84533Y-82594D01*
X-82594Y-84533D01*
X-80220Y-85904D01*
X-77571Y-86614D01*
X-74829D01*
X-72180Y-85904D01*
X-69806Y-84533D01*
X-68635Y-83362D01*
X-67365Y-83888D01*
Y-93912D01*
X-68635Y-94438D01*
X-69806Y-93267D01*
X-72180Y-91896D01*
X-74829Y-91186D01*
X-77571D01*
X-80220Y-91896D01*
X-82594Y-93267D01*
X-84533Y-95206D01*
X-85904Y-97580D01*
X-86614Y-100229D01*
Y-102971D01*
X-85904Y-105620D01*
X-84533Y-107994D01*
X-82594Y-109933D01*
X-80220Y-111304D01*
X-77571Y-112014D01*
X-74829D01*
X-72180Y-111304D01*
X-69806Y-109933D01*
X-68635Y-108762D01*
X-67365Y-109288D01*
Y-119312D01*
X-68635Y-119838D01*
X-69806Y-118667D01*
X-72180Y-117296D01*
X-74829Y-116586D01*
X-77571D01*
X-80220Y-117296D01*
X-82594Y-118667D01*
X-84533Y-120606D01*
X-85904Y-122980D01*
X-86614Y-125629D01*
Y-128371D01*
X-85904Y-131020D01*
X-84533Y-133394D01*
X-82594Y-135333D01*
X-80220Y-136704D01*
X-77571Y-137414D01*
X-75611D01*
X-75085Y-138684D01*
X-127963Y-191562D01*
X-129013Y-190956D01*
X-130184Y-190642D01*
Y-126738D01*
X-130184Y-126737D01*
X-130401Y-125647D01*
X-131018Y-124723D01*
X-131018Y-124723D01*
X-171804Y-83937D01*
X-171318Y-82764D01*
X-167006D01*
Y-74716D01*
X-168681D01*
Y-72160D01*
X-165546Y-69024D01*
X-165546Y-69024D01*
X-164928Y-68100D01*
X-164711Y-67010D01*
X-164711Y-67010D01*
Y-64724D01*
X-162256D01*
Y-56553D01*
X-161900Y-56482D01*
X-160976Y-55864D01*
X-158680Y-53569D01*
X-151344D01*
Y-55244D01*
X-143296D01*
Y-46514D01*
X-143296Y-46196D01*
Y-45244D01*
X-143296Y-44926D01*
Y-36196D01*
X-144471D01*
Y20956D01*
X-143296D01*
Y25975D01*
X-133876Y35396D01*
X-133876Y35396D01*
X-133258Y36320D01*
X-133041Y37410D01*
X-133041Y37410D01*
Y40422D01*
X-133258Y41512D01*
X-133876Y42436D01*
X-133876Y42436D01*
X-135364Y43924D01*
X-136288Y44542D01*
X-137378Y44759D01*
X-137378Y44759D01*
X-179160D01*
X-196871Y62470D01*
Y92620D01*
X-196871Y92620D01*
X-197088Y93710D01*
X-197706Y94634D01*
X-197706Y94634D01*
X-213429Y110358D01*
X-212943Y111531D01*
X-206430D01*
X-206430Y111531D01*
X-205340Y111748D01*
X-204864Y112066D01*
X-192099D01*
Y92249D01*
X-192099Y92249D01*
X-191882Y91159D01*
X-191264Y90234D01*
X-187859Y86829D01*
Y77759D01*
X-188784D01*
Y60461D01*
X-161736D01*
Y77759D01*
X-162661D01*
Y86829D01*
X-149936Y99554D01*
X-149936Y99554D01*
X-149318Y100478D01*
X-149101Y101569D01*
Y112066D01*
X-136696D01*
Y121614D01*
X-154744D01*
Y115135D01*
X-154799Y114860D01*
X-154799Y114860D01*
Y102749D01*
X-164563Y92985D01*
X-165736Y93471D01*
Y96734D01*
X-174784D01*
Y96734D01*
X-175736D01*
Y96734D01*
X-184784D01*
Y94582D01*
X-186054Y93928D01*
X-186401Y94176D01*
Y148720D01*
X-186618Y149810D01*
X-187236Y150734D01*
X-187236Y150734D01*
X-190696Y154195D01*
Y159714D01*
X-208744D01*
Y150166D01*
X-194725D01*
X-192843Y148284D01*
X-193369Y147014D01*
X-208744D01*
Y137466D01*
X-192099D01*
Y134314D01*
X-208744D01*
Y124766D01*
X-192099D01*
Y121614D01*
X-208744D01*
Y117229D01*
X-216956D01*
Y118840D01*
X-215940D01*
Y123110D01*
X-226020D01*
Y118840D01*
X-225004D01*
Y117229D01*
X-232196D01*
Y118840D01*
X-231180D01*
Y123110D01*
X-236220D01*
X-241260D01*
Y118840D01*
X-240244D01*
Y109856D01*
X-239069D01*
Y95914D01*
X-244744D01*
Y90895D01*
X-250507Y85132D01*
X-251680Y85618D01*
Y87430D01*
X-252696D01*
Y95914D01*
X-253691D01*
Y102896D01*
X-253073Y103515D01*
X-252222Y105569D01*
Y107792D01*
X-253073Y109845D01*
X-254645Y111417D01*
X-256698Y112268D01*
X-258922D01*
X-260975Y111417D01*
X-262547Y109845D01*
X-263398Y107792D01*
Y105569D01*
X-262547Y103515D01*
X-260975Y101943D01*
X-259389Y101285D01*
Y95914D01*
X-269744D01*
Y87430D01*
X-270760D01*
Y83160D01*
X-261220D01*
Y80620D01*
X-270760D01*
Y76350D01*
X-269744D01*
Y71895D01*
X-270290Y71349D01*
X-281726D01*
Y73024D01*
X-282901D01*
Y81836D01*
X-281726D01*
Y86421D01*
X-281242Y87146D01*
X-281025Y88236D01*
X-281242Y89326D01*
X-281391Y89550D01*
X-280765Y90820D01*
X-280710D01*
Y95090D01*
X-285750D01*
X-290790D01*
Y90820D01*
X-289774D01*
Y81836D01*
X-288599D01*
Y73024D01*
X-289774D01*
Y63976D01*
X-289774D01*
Y63024D01*
X-289774D01*
Y53976D01*
X-281726D01*
Y55651D01*
X-261159D01*
X-261159Y55651D01*
X-260068Y55868D01*
X-259144Y56486D01*
X-249412Y66218D01*
X-249412Y66218D01*
X-248794Y67143D01*
X-248577Y68233D01*
X-248577Y68233D01*
Y79004D01*
X-240715Y86866D01*
X-227696D01*
Y95914D01*
X-233371D01*
Y109856D01*
X-232196D01*
Y111531D01*
X-225004D01*
Y109856D01*
X-220985D01*
X-202569Y91440D01*
Y61290D01*
X-202569Y61290D01*
X-202352Y60200D01*
X-201734Y59276D01*
X-182354Y39896D01*
X-182354Y39896D01*
X-181430Y39278D01*
X-180340Y39061D01*
X-180340Y39061D01*
X-152360D01*
Y36750D01*
X-147320D01*
Y34210D01*
X-152360D01*
Y29940D01*
X-151344D01*
Y28329D01*
X-161736D01*
Y33519D01*
X-180220D01*
Y34535D01*
X-183740D01*
Y24870D01*
Y15205D01*
X-181359D01*
Y11112D01*
X-181359Y11112D01*
X-181142Y10022D01*
X-180524Y9098D01*
X-180274Y8847D01*
X-180848Y7462D01*
Y5239D01*
X-179997Y3185D01*
X-178425Y1613D01*
X-176371Y762D01*
X-174149D01*
X-172095Y1613D01*
X-170523Y3185D01*
X-169672Y5239D01*
Y7462D01*
X-170523Y9515D01*
X-172095Y11087D01*
X-174149Y11938D01*
X-175307D01*
X-175661Y12292D01*
Y15190D01*
X-175081Y15626D01*
X-173680Y15091D01*
X-173662Y15000D01*
X-173044Y14076D01*
X-159636Y667D01*
X-160947Y-645D01*
X-161798Y-2698D01*
Y-4867D01*
X-162219Y-6011D01*
Y-6011D01*
X-162219Y-6011D01*
D01*
X-162564Y-6390D01*
X-163006Y-6390D01*
X-166450D01*
Y-10160D01*
X-162180D01*
Y-7506D01*
X-162180Y-7318D01*
X-161526Y-7136D01*
X-161526D01*
X-161526Y-7136D01*
Y-7136D01*
X-160375Y-7547D01*
X-159375Y-8547D01*
X-157322Y-9398D01*
X-155098D01*
X-153045Y-8547D01*
X-151473Y-6975D01*
X-151439Y-6893D01*
X-150169Y-7146D01*
Y-36196D01*
X-151344D01*
Y-37871D01*
X-161240D01*
Y-32280D01*
X-167030D01*
Y-31010D01*
X-168300D01*
Y-23160D01*
X-172820D01*
Y-24176D01*
X-174276D01*
Y-17083D01*
X-173260Y-16470D01*
X-168990D01*
Y-11430D01*
Y-6390D01*
X-173260D01*
Y-7406D01*
X-182244D01*
Y-15454D01*
X-179974D01*
Y-24176D01*
X-190804D01*
Y-37844D01*
X-176679D01*
X-176564Y-38016D01*
X-171846Y-42734D01*
X-170921Y-43352D01*
X-169831Y-43569D01*
X-169831Y-43569D01*
X-152242D01*
X-151344Y-44467D01*
X-151344Y-46196D01*
X-151344Y-46514D01*
Y-47871D01*
X-159860D01*
X-159860Y-47871D01*
X-160950Y-48088D01*
X-161874Y-48706D01*
X-161874Y-48706D01*
X-164170Y-51001D01*
X-165050D01*
X-165325Y-51056D01*
X-176381D01*
X-176496Y-50884D01*
X-176496Y-50884D01*
X-181134Y-46246D01*
X-182059Y-45628D01*
X-183149Y-45411D01*
X-183149Y-45411D01*
X-201716D01*
Y-43736D01*
X-201716Y-43736D01*
Y-42784D01*
X-201716D01*
X-201716Y-42466D01*
Y-33736D01*
X-209764D01*
Y-38755D01*
X-215120Y-44112D01*
X-215738Y-45036D01*
X-215955Y-46126D01*
X-215955Y-46126D01*
Y-53340D01*
X-215955Y-53340D01*
X-215738Y-54430D01*
X-215120Y-55354D01*
X-194619Y-75856D01*
Y-92710D01*
X-194619Y-92710D01*
X-194402Y-93800D01*
X-193784Y-94724D01*
X-183951Y-104558D01*
Y-125257D01*
X-185221Y-125896D01*
X-186849Y-125222D01*
X-189072D01*
X-191125Y-126073D01*
X-192697Y-127645D01*
X-192845Y-128001D01*
X-196636D01*
Y-126366D01*
X-204684D01*
Y-135096D01*
X-204684Y-135414D01*
Y-136366D01*
X-204684Y-136684D01*
Y-145414D01*
X-203589D01*
Y-154726D01*
X-205280D01*
Y-153710D01*
X-209550D01*
Y-158750D01*
X-210820D01*
Y-160020D01*
X-216360D01*
Y-163790D01*
X-212048D01*
X-211562Y-164963D01*
X-222612Y-176013D01*
X-238552D01*
X-238552Y-176013D01*
X-239642Y-176230D01*
X-240566Y-176848D01*
X-255280Y-191562D01*
X-256330Y-190956D01*
X-258979Y-190246D01*
X-261721D01*
X-264370Y-190956D01*
X-266744Y-192327D01*
X-268683Y-194266D01*
X-270054Y-196640D01*
X-270764Y-199289D01*
Y-202031D01*
X-270054Y-204680D01*
X-268683Y-207054D01*
X-266744Y-208993D01*
X-264370Y-210364D01*
X-261721Y-211074D01*
X-258979D01*
X-256330Y-210364D01*
X-253956Y-208993D01*
X-252017Y-207054D01*
X-250646Y-204680D01*
X-249936Y-202031D01*
Y-199289D01*
X-250646Y-196640D01*
X-251252Y-195590D01*
X-237372Y-181711D01*
X-221432D01*
X-221432Y-181711D01*
X-220342Y-181494D01*
X-219418Y-180876D01*
X-201315Y-162774D01*
X-196296D01*
Y-154726D01*
X-197891D01*
Y-145414D01*
X-196636D01*
Y-136684D01*
X-196636Y-136366D01*
Y-135414D01*
X-196636Y-135096D01*
Y-133699D01*
X-192812D01*
X-192697Y-133975D01*
X-191125Y-135547D01*
X-189072Y-136398D01*
X-186849D01*
X-185221Y-135724D01*
X-183951Y-136363D01*
Y-153278D01*
X-198706Y-168033D01*
X-199323Y-168957D01*
X-199540Y-170047D01*
X-199540Y-170047D01*
Y-190642D01*
X-200711Y-190956D01*
X-203086Y-192327D01*
X-205025Y-194266D01*
X-206395Y-196640D01*
X-207105Y-199289D01*
Y-202031D01*
X-206395Y-204680D01*
X-205025Y-207054D01*
X-203086Y-208993D01*
X-200711Y-210364D01*
X-198062Y-211074D01*
X-195320D01*
X-192672Y-210364D01*
X-190297Y-208993D01*
X-188358Y-207054D01*
X-186987Y-204680D01*
X-186277Y-202031D01*
Y-199289D01*
X-186987Y-196640D01*
X-188358Y-194266D01*
X-190297Y-192327D01*
X-192672Y-190956D01*
X-193843Y-190642D01*
Y-171227D01*
X-179088Y-156473D01*
X-179088Y-156473D01*
X-178470Y-155548D01*
X-178253Y-154458D01*
X-178253Y-154458D01*
Y-103378D01*
X-178253Y-103378D01*
X-178470Y-102288D01*
X-179088Y-101364D01*
X-179088Y-101364D01*
X-188921Y-91530D01*
Y-74676D01*
X-189138Y-73586D01*
X-189756Y-72662D01*
X-189756Y-72662D01*
X-208460Y-53957D01*
X-207974Y-52784D01*
X-201716D01*
Y-51109D01*
X-190804D01*
Y-64724D01*
X-188349D01*
Y-67010D01*
X-188349Y-67010D01*
X-188132Y-68100D01*
X-187514Y-69024D01*
X-184379Y-72160D01*
Y-74716D01*
X-186054D01*
Y-82764D01*
X-181035D01*
X-135881Y-127917D01*
Y-190642D01*
X-137052Y-190956D01*
X-139427Y-192327D01*
X-141366Y-194266D01*
X-142737Y-196640D01*
X-143447Y-199289D01*
Y-202031D01*
X-142737Y-204680D01*
X-141366Y-207054D01*
X-139427Y-208993D01*
X-137052Y-210364D01*
X-134403Y-211074D01*
X-131662D01*
X-129013Y-210364D01*
X-126638Y-208993D01*
X-124699Y-207054D01*
X-123328Y-204680D01*
X-122619Y-202031D01*
Y-199289D01*
X-123328Y-196640D01*
X-123934Y-195590D01*
X-62502Y-134158D01*
X-61884Y-133234D01*
X-61667Y-132143D01*
X-61667Y-132143D01*
Y39116D01*
X-61884Y40206D01*
X-62502Y41130D01*
X-62502Y41130D01*
X-67102Y45731D01*
X-66496Y46780D01*
X-65786Y49429D01*
Y52171D01*
X-66496Y54820D01*
X-67867Y57194D01*
X-69806Y59133D01*
X-72180Y60504D01*
X-73351Y60818D01*
Y66182D01*
X-72180Y66496D01*
X-69806Y67867D01*
X-67867Y69806D01*
X-66496Y72180D01*
X-65786Y74829D01*
Y77571D01*
X-66496Y80220D01*
X-66708Y80588D01*
X-62502Y84795D01*
X-62502Y84795D01*
X-61884Y85719D01*
X-61667Y86810D01*
Y115316D01*
X-61884Y116406D01*
X-62502Y117330D01*
X-62502Y117330D01*
X-67102Y121931D01*
X-66496Y122980D01*
X-65786Y125629D01*
Y128371D01*
X-66496Y131020D01*
X-67867Y133394D01*
X-69806Y135333D01*
X-72180Y136704D01*
X-73351Y137018D01*
Y142382D01*
X-72180Y142696D01*
X-69806Y144067D01*
X-67867Y146006D01*
X-66496Y148380D01*
X-65786Y151029D01*
Y153771D01*
X-66496Y156420D01*
X-67867Y158794D01*
X-69806Y160733D01*
X-72180Y162104D01*
X-74829Y162814D01*
D02*
G37*
G36*
X-227696Y76914D02*
X-244744D01*
Y67866D01*
X-237799D01*
Y62018D01*
X-238115Y61887D01*
X-239687Y60315D01*
X-240538Y58261D01*
Y56038D01*
X-239687Y53985D01*
X-238115Y52413D01*
X-236061Y51562D01*
X-233839D01*
X-231785Y52413D01*
X-230213Y53985D01*
X-229362Y56038D01*
Y58261D01*
X-230213Y60315D01*
X-231785Y61887D01*
X-232101Y62018D01*
Y67866D01*
X-227696D01*
Y76914D01*
D02*
G37*
G36*
X-186280Y34535D02*
X-189800D01*
Y26140D01*
X-186280D01*
Y34535D01*
D02*
G37*
G36*
Y23600D02*
X-189800D01*
Y15205D01*
X-186280D01*
Y23600D01*
D02*
G37*
G36*
X77571Y61214D02*
X74829D01*
X72180Y60504D01*
X69806Y59133D01*
X67867Y57194D01*
X66496Y54820D01*
X65786Y52171D01*
Y49429D01*
X66496Y46780D01*
X67867Y44406D01*
X69806Y42467D01*
X72180Y41096D01*
X74829Y40386D01*
X77571D01*
X80220Y41096D01*
X81270Y41702D01*
X94941Y28030D01*
Y-95354D01*
X87884Y-102411D01*
X86614Y-101885D01*
Y-100229D01*
X85904Y-97580D01*
X84533Y-95206D01*
X82594Y-93267D01*
X80220Y-91896D01*
X77571Y-91186D01*
X74829D01*
X72180Y-91896D01*
X69806Y-93267D01*
X67867Y-95206D01*
X66496Y-97580D01*
X66182Y-98751D01*
X29686D01*
X29686Y-98751D01*
X28596Y-98968D01*
X27672Y-99586D01*
X27672Y-99586D01*
X-64304Y-191562D01*
X-65354Y-190956D01*
X-68003Y-190246D01*
X-70745D01*
X-71628Y-190483D01*
X-72285Y-189344D01*
X64559Y-52499D01*
X65976Y-52879D01*
X66496Y-54820D01*
X67867Y-57194D01*
X69806Y-59133D01*
X72180Y-60504D01*
X74829Y-61214D01*
X77571D01*
X80220Y-60504D01*
X82594Y-59133D01*
X84533Y-57194D01*
X85904Y-54820D01*
X86614Y-52171D01*
Y-49429D01*
X85904Y-46780D01*
X84533Y-44406D01*
X82594Y-42467D01*
X80220Y-41096D01*
X77571Y-40386D01*
X74829D01*
X72180Y-41096D01*
X69806Y-42467D01*
X67957Y-44316D01*
X67276Y-44247D01*
X66687Y-44089D01*
Y-32111D01*
X67276Y-31953D01*
X67957Y-31884D01*
X69806Y-33733D01*
X72180Y-35104D01*
X74829Y-35814D01*
X77571D01*
X80220Y-35104D01*
X82594Y-33733D01*
X84533Y-31794D01*
X85904Y-29420D01*
X86614Y-26771D01*
Y-24029D01*
X85904Y-21380D01*
X84533Y-19006D01*
X82594Y-17067D01*
X80220Y-15696D01*
X77571Y-14986D01*
X74829D01*
X72180Y-15696D01*
X69806Y-17067D01*
X67957Y-18916D01*
X67276Y-18847D01*
X66687Y-18690D01*
Y-6711D01*
X67276Y-6553D01*
X67957Y-6484D01*
X69806Y-8333D01*
X72180Y-9704D01*
X74829Y-10414D01*
X77571D01*
X80220Y-9704D01*
X82594Y-8333D01*
X84533Y-6394D01*
X85904Y-4020D01*
X86614Y-1371D01*
Y1371D01*
X85904Y4020D01*
X84533Y6394D01*
X82594Y8333D01*
X80220Y9704D01*
X77571Y10414D01*
X74829D01*
X72180Y9704D01*
X69806Y8333D01*
X67957Y6484D01*
X67276Y6553D01*
X66687Y6711D01*
Y11858D01*
X71130Y16302D01*
X72180Y15696D01*
X74829Y14986D01*
X77571D01*
X80220Y15696D01*
X82594Y17067D01*
X84533Y19006D01*
X85904Y21380D01*
X86614Y24029D01*
Y26771D01*
X85904Y29420D01*
X84533Y31794D01*
X82594Y33733D01*
X80220Y35104D01*
X77571Y35814D01*
X74829D01*
X72180Y35104D01*
X69806Y33733D01*
X67867Y31794D01*
X66496Y29420D01*
X65786Y26771D01*
Y24029D01*
X66496Y21380D01*
X67102Y20331D01*
X61824Y15052D01*
X61206Y14128D01*
X60989Y13038D01*
X60989Y13038D01*
Y-48012D01*
X-84564Y-193566D01*
X-85182Y-194490D01*
X-85399Y-195580D01*
X-85399Y-195580D01*
Y-204007D01*
X-85399Y-204007D01*
X-85182Y-205098D01*
X-84564Y-206022D01*
X-76228Y-214358D01*
X-76228Y-214358D01*
X-75304Y-214976D01*
X-74213Y-215193D01*
X-74213Y-215193D01*
X-47868D01*
X-47868Y-215193D01*
X-46778Y-214976D01*
X-45854Y-214358D01*
X-35004Y-203509D01*
X-15733D01*
X-15419Y-204680D01*
X-14048Y-207054D01*
X-12109Y-208993D01*
X-9735Y-210364D01*
X-7086Y-211074D01*
X-4344D01*
X-1695Y-210364D01*
X679Y-208993D01*
X2618Y-207054D01*
X3989Y-204680D01*
X4699Y-202031D01*
Y-199289D01*
X3989Y-196640D01*
X2618Y-194266D01*
X679Y-192327D01*
X-1695Y-190956D01*
X-4344Y-190246D01*
X-7086D01*
X-9735Y-190956D01*
X-12109Y-192327D01*
X-14048Y-194266D01*
X-15419Y-196640D01*
X-15733Y-197811D01*
X-36184D01*
X-37274Y-198028D01*
X-38199Y-198646D01*
X-38199Y-198646D01*
X-49048Y-209495D01*
X-61685D01*
X-62211Y-208225D01*
X-61041Y-207054D01*
X-59669Y-204680D01*
X-58960Y-202031D01*
Y-199289D01*
X-59669Y-196640D01*
X-60276Y-195590D01*
X30866Y-104449D01*
X66182D01*
X66496Y-105620D01*
X67867Y-107994D01*
X69806Y-109933D01*
X70529Y-110351D01*
X70720Y-111928D01*
X55929Y-126718D01*
X55312Y-127642D01*
X55095Y-128733D01*
X55095Y-128733D01*
Y-190642D01*
X53924Y-190956D01*
X51549Y-192327D01*
X49611Y-194266D01*
X48239Y-196640D01*
X47530Y-199289D01*
Y-202031D01*
X48239Y-204680D01*
X49611Y-207054D01*
X51549Y-208993D01*
X53924Y-210364D01*
X56573Y-211074D01*
X59315D01*
X61963Y-210364D01*
X64338Y-208993D01*
X66277Y-207054D01*
X67648Y-204680D01*
X68358Y-202031D01*
Y-199289D01*
X67648Y-196640D01*
X66277Y-194266D01*
X64338Y-192327D01*
X61963Y-190956D01*
X60792Y-190642D01*
Y-129913D01*
X63597Y-127108D01*
X64770Y-127594D01*
Y-128505D01*
X65549Y-131412D01*
X67054Y-134018D01*
X69182Y-136146D01*
X71788Y-137651D01*
X74695Y-138430D01*
X74930D01*
Y-127000D01*
X76200D01*
Y-125730D01*
X87630D01*
Y-125495D01*
X86851Y-122588D01*
X85346Y-119982D01*
X83218Y-117854D01*
X82111Y-117214D01*
X82122Y-116478D01*
X82256Y-115832D01*
X83054Y-115298D01*
X99804Y-98548D01*
X99804Y-98548D01*
X100422Y-97624D01*
X100639Y-96534D01*
X100639Y-96533D01*
Y29210D01*
X100639Y29210D01*
X100422Y30300D01*
X99804Y31224D01*
X99804Y31224D01*
X85298Y45731D01*
X85904Y46780D01*
X86614Y49429D01*
Y52171D01*
X85904Y54820D01*
X84533Y57194D01*
X82594Y59133D01*
X80220Y60504D01*
X77571Y61214D01*
D02*
G37*
G36*
X-162180Y-12700D02*
X-166450D01*
Y-16470D01*
X-162180D01*
Y-12700D01*
D02*
G37*
G36*
X-161240Y-23160D02*
X-165760D01*
Y-29740D01*
X-161240D01*
Y-23160D01*
D02*
G37*
G36*
X0Y34651D02*
X-5421Y34224D01*
X-10708Y32955D01*
X-15731Y30874D01*
X-20367Y28033D01*
X-24502Y24502D01*
X-28033Y20367D01*
X-30874Y15731D01*
X-32955Y10708D01*
X-34224Y5421D01*
X-34651Y0D01*
X-34224Y-5421D01*
X-32955Y-10708D01*
X-30874Y-15731D01*
X-28033Y-20367D01*
X-24502Y-24502D01*
X-20367Y-28033D01*
X-15731Y-30874D01*
X-10708Y-32955D01*
X-5421Y-34224D01*
X0Y-34651D01*
X5421Y-34224D01*
X10708Y-32955D01*
X15731Y-30874D01*
X20367Y-28033D01*
X24502Y-24502D01*
X28033Y-20367D01*
X30874Y-15731D01*
X32955Y-10708D01*
X34224Y-5421D01*
X34651Y0D01*
X34224Y5421D01*
X32955Y10708D01*
X30874Y15731D01*
X28033Y20367D01*
X24502Y24502D01*
X20367Y28033D01*
X15731Y30874D01*
X10708Y32955D01*
X5421Y34224D01*
X0Y34651D01*
D02*
G37*
G36*
X77571Y-65786D02*
X74829D01*
X72180Y-66496D01*
X69806Y-67867D01*
X67867Y-69806D01*
X66496Y-72180D01*
X65786Y-74829D01*
Y-77571D01*
X66496Y-80220D01*
X67867Y-82594D01*
X69806Y-84533D01*
X72180Y-85904D01*
X74829Y-86614D01*
X77571D01*
X80220Y-85904D01*
X82594Y-84533D01*
X84533Y-82594D01*
X85904Y-80220D01*
X86614Y-77571D01*
Y-74829D01*
X85904Y-72180D01*
X84533Y-69806D01*
X82594Y-67867D01*
X80220Y-66496D01*
X77571Y-65786D01*
D02*
G37*
G36*
X87630Y-128270D02*
X77470D01*
Y-138430D01*
X77705D01*
X80612Y-137651D01*
X83218Y-136146D01*
X85346Y-134018D01*
X86851Y-131412D01*
X87630Y-128505D01*
Y-128270D01*
D02*
G37*
G36*
X-212090Y-153710D02*
X-216360D01*
Y-157480D01*
X-212090D01*
Y-153710D01*
D02*
G37*
G36*
X250425Y-189230D02*
X250190D01*
Y-199390D01*
X260350D01*
Y-199155D01*
X259571Y-196248D01*
X258066Y-193642D01*
X255938Y-191514D01*
X253332Y-190009D01*
X250425Y-189230D01*
D02*
G37*
G36*
X247650D02*
X247415D01*
X244508Y-190009D01*
X241902Y-191514D01*
X239774Y-193642D01*
X238269Y-196248D01*
X237490Y-199155D01*
Y-199390D01*
X247650D01*
Y-189230D01*
D02*
G37*
G36*
X77571Y112014D02*
X74829D01*
X72180Y111304D01*
X69806Y109933D01*
X67867Y107994D01*
X66496Y105620D01*
X65786Y102971D01*
Y100229D01*
X66496Y97580D01*
X67867Y95206D01*
X69806Y93267D01*
X72180Y91896D01*
X74829Y91186D01*
X77571D01*
X80220Y91896D01*
X82594Y93267D01*
X84533Y95206D01*
X85904Y97580D01*
X86218Y98751D01*
X96647D01*
X96647Y98751D01*
X97737Y98968D01*
X97739Y98969D01*
X109092D01*
X182412Y25649D01*
Y-190642D01*
X181242Y-190956D01*
X178867Y-192327D01*
X176928Y-194266D01*
X175557Y-196640D01*
X174847Y-199289D01*
Y-202031D01*
X175557Y-204680D01*
X176928Y-207054D01*
X178867Y-208993D01*
X181242Y-210364D01*
X183890Y-211074D01*
X186632D01*
X189281Y-210364D01*
X191656Y-208993D01*
X193594Y-207054D01*
X194965Y-204680D01*
X195675Y-202031D01*
Y-199289D01*
X194965Y-196640D01*
X193594Y-194266D01*
X191656Y-192327D01*
X189281Y-190956D01*
X188110Y-190642D01*
Y26829D01*
X188110Y26829D01*
X187893Y27919D01*
X187276Y28843D01*
X187276Y28843D01*
X112287Y103832D01*
X111362Y104450D01*
X110272Y104667D01*
X110272Y104667D01*
X96865D01*
X96865Y104667D01*
X95775Y104450D01*
X95773Y104449D01*
X86218D01*
X85904Y105620D01*
X84533Y107994D01*
X82594Y109933D01*
X80220Y111304D01*
X77571Y112014D01*
D02*
G37*
G36*
Y86614D02*
X74829D01*
X72180Y85904D01*
X69806Y84533D01*
X67867Y82594D01*
X66496Y80220D01*
X65786Y77571D01*
Y74829D01*
X66496Y72180D01*
X67867Y69806D01*
X69806Y67867D01*
X72180Y66496D01*
X74829Y65786D01*
X77571D01*
X80220Y66496D01*
X81270Y67102D01*
X118754Y29618D01*
Y-190642D01*
X117583Y-190956D01*
X115208Y-192327D01*
X113269Y-194266D01*
X111898Y-196640D01*
X111188Y-199289D01*
Y-202031D01*
X111898Y-204680D01*
X113269Y-207054D01*
X115208Y-208993D01*
X117583Y-210364D01*
X120232Y-211074D01*
X122973D01*
X125622Y-210364D01*
X127997Y-208993D01*
X129936Y-207054D01*
X131307Y-204680D01*
X132016Y-202031D01*
Y-199289D01*
X131307Y-196640D01*
X129936Y-194266D01*
X127997Y-192327D01*
X125622Y-190956D01*
X124451Y-190642D01*
Y30797D01*
X124451Y30798D01*
X124234Y31888D01*
X123617Y32812D01*
X123617Y32812D01*
X85298Y71130D01*
X85904Y72180D01*
X86614Y74829D01*
Y77571D01*
X85904Y80220D01*
X84533Y82594D01*
X82594Y84533D01*
X80220Y85904D01*
X77571Y86614D01*
D02*
G37*
G36*
X260350Y-201930D02*
X250190D01*
Y-212090D01*
X250425D01*
X253332Y-211311D01*
X255938Y-209806D01*
X258066Y-207678D01*
X259571Y-205072D01*
X260350Y-202165D01*
Y-201930D01*
D02*
G37*
G36*
X247650D02*
X237490D01*
Y-202165D01*
X238269Y-205072D01*
X239774Y-207678D01*
X241902Y-209806D01*
X244508Y-211311D01*
X247415Y-212090D01*
X247650D01*
Y-201930D01*
D02*
G37*
G36*
X250107Y-229743D02*
X247733D01*
X245440Y-230357D01*
X243383Y-231545D01*
X241705Y-233223D01*
X240518Y-235280D01*
X239903Y-237573D01*
Y-239947D01*
X240518Y-242240D01*
X241705Y-244297D01*
X243383Y-245975D01*
X245440Y-247162D01*
X247733Y-247777D01*
X250107D01*
X252400Y-247162D01*
X254457Y-245975D01*
X256135Y-244297D01*
X257323Y-242240D01*
X257937Y-239947D01*
Y-237573D01*
X257323Y-235280D01*
X256135Y-233223D01*
X254457Y-231545D01*
X252400Y-230357D01*
X250107Y-229743D01*
D02*
G37*
G36*
X186448D02*
X184074D01*
X181781Y-230357D01*
X179725Y-231545D01*
X178046Y-233223D01*
X176859Y-235280D01*
X176244Y-237573D01*
Y-239947D01*
X176859Y-242240D01*
X178046Y-244297D01*
X179725Y-245975D01*
X181781Y-247162D01*
X184074Y-247777D01*
X186448D01*
X188742Y-247162D01*
X190798Y-245975D01*
X192477Y-244297D01*
X193664Y-242240D01*
X194278Y-239947D01*
Y-237573D01*
X193664Y-235280D01*
X192477Y-233223D01*
X190798Y-231545D01*
X188742Y-230357D01*
X186448Y-229743D01*
D02*
G37*
G36*
X122790D02*
X120415D01*
X118122Y-230357D01*
X116066Y-231545D01*
X114387Y-233223D01*
X113200Y-235280D01*
X112585Y-237573D01*
Y-239947D01*
X113200Y-242240D01*
X114387Y-244297D01*
X116066Y-245975D01*
X118122Y-247162D01*
X120415Y-247777D01*
X122790D01*
X125083Y-247162D01*
X127139Y-245975D01*
X128818Y-244297D01*
X130005Y-242240D01*
X130619Y-239947D01*
Y-237573D01*
X130005Y-235280D01*
X128818Y-233223D01*
X127139Y-231545D01*
X125083Y-230357D01*
X122790Y-229743D01*
D02*
G37*
G36*
X59131D02*
X56757D01*
X54463Y-230357D01*
X52407Y-231545D01*
X50728Y-233223D01*
X49541Y-235280D01*
X48927Y-237573D01*
Y-239947D01*
X49541Y-242240D01*
X50728Y-244297D01*
X52407Y-245975D01*
X54463Y-247162D01*
X56757Y-247777D01*
X59131D01*
X61424Y-247162D01*
X63480Y-245975D01*
X65159Y-244297D01*
X66346Y-242240D01*
X66961Y-239947D01*
Y-237573D01*
X66346Y-235280D01*
X65159Y-233223D01*
X63480Y-231545D01*
X61424Y-230357D01*
X59131Y-229743D01*
D02*
G37*
G36*
X-4528D02*
X-6902D01*
X-9195Y-230357D01*
X-11252Y-231545D01*
X-12930Y-233223D01*
X-14117Y-235280D01*
X-14732Y-237573D01*
Y-239947D01*
X-14117Y-242240D01*
X-12930Y-244297D01*
X-11252Y-245975D01*
X-9195Y-247162D01*
X-6902Y-247777D01*
X-4528D01*
X-2235Y-247162D01*
X-178Y-245975D01*
X1500Y-244297D01*
X2688Y-242240D01*
X3302Y-239947D01*
Y-237573D01*
X2688Y-235280D01*
X1500Y-233223D01*
X-178Y-231545D01*
X-2235Y-230357D01*
X-4528Y-229743D01*
D02*
G37*
G36*
X-68187D02*
X-70561D01*
X-72854Y-230357D01*
X-74910Y-231545D01*
X-76589Y-233223D01*
X-77776Y-235280D01*
X-78391Y-237573D01*
Y-239947D01*
X-77776Y-242240D01*
X-76589Y-244297D01*
X-74910Y-245975D01*
X-72854Y-247162D01*
X-70561Y-247777D01*
X-68187D01*
X-65893Y-247162D01*
X-63837Y-245975D01*
X-62158Y-244297D01*
X-60971Y-242240D01*
X-60357Y-239947D01*
Y-237573D01*
X-60971Y-235280D01*
X-62158Y-233223D01*
X-63837Y-231545D01*
X-65893Y-230357D01*
X-68187Y-229743D01*
D02*
G37*
G36*
X-131845D02*
X-134220D01*
X-136513Y-230357D01*
X-138569Y-231545D01*
X-140248Y-233223D01*
X-141435Y-235280D01*
X-142050Y-237573D01*
Y-239947D01*
X-141435Y-242240D01*
X-140248Y-244297D01*
X-138569Y-245975D01*
X-136513Y-247162D01*
X-134220Y-247777D01*
X-131845D01*
X-129552Y-247162D01*
X-127496Y-245975D01*
X-125817Y-244297D01*
X-124630Y-242240D01*
X-124016Y-239947D01*
Y-237573D01*
X-124630Y-235280D01*
X-125817Y-233223D01*
X-127496Y-231545D01*
X-129552Y-230357D01*
X-131845Y-229743D01*
D02*
G37*
G36*
X-195504D02*
X-197878D01*
X-200172Y-230357D01*
X-202228Y-231545D01*
X-203907Y-233223D01*
X-205094Y-235280D01*
X-205708Y-237573D01*
Y-239947D01*
X-205094Y-242240D01*
X-203907Y-244297D01*
X-202228Y-245975D01*
X-200172Y-247162D01*
X-197878Y-247777D01*
X-195504D01*
X-193211Y-247162D01*
X-191155Y-245975D01*
X-189476Y-244297D01*
X-188289Y-242240D01*
X-187674Y-239947D01*
Y-237573D01*
X-188289Y-235280D01*
X-189476Y-233223D01*
X-191155Y-231545D01*
X-193211Y-230357D01*
X-195504Y-229743D01*
D02*
G37*
G36*
X-259163D02*
X-261537D01*
X-263830Y-230357D01*
X-265887Y-231545D01*
X-267565Y-233223D01*
X-268752Y-235280D01*
X-269367Y-237573D01*
Y-239947D01*
X-268752Y-242240D01*
X-267565Y-244297D01*
X-265887Y-245975D01*
X-263830Y-247162D01*
X-261537Y-247777D01*
X-259163D01*
X-256870Y-247162D01*
X-254813Y-245975D01*
X-253135Y-244297D01*
X-251947Y-242240D01*
X-251333Y-239947D01*
Y-237573D01*
X-251947Y-235280D01*
X-253135Y-233223D01*
X-254813Y-231545D01*
X-256870Y-230357D01*
X-259163Y-229743D01*
D02*
G37*
%LPD*%
D14*
X-236220Y91390D02*
D03*
Y72390D02*
D03*
X-261220D02*
D03*
Y81890D02*
D03*
Y91390D02*
D03*
D15*
X-285750Y58500D02*
D03*
Y68500D02*
D03*
X-285750Y86360D02*
D03*
Y96360D02*
D03*
X-220980Y114380D02*
D03*
Y124380D02*
D03*
X-236220Y124380D02*
D03*
Y114380D02*
D03*
X-147320Y35480D02*
D03*
Y25480D02*
D03*
X-205740Y-38260D02*
D03*
Y-48260D02*
D03*
X-147320Y-50720D02*
D03*
Y-40720D02*
D03*
X-200660Y-130890D02*
D03*
Y-140890D02*
D03*
D16*
X-199720Y116840D02*
D03*
Y129540D02*
D03*
Y142240D02*
D03*
Y154940D02*
D03*
X-145720D02*
D03*
Y142240D02*
D03*
Y129540D02*
D03*
Y116840D02*
D03*
D17*
X-170260Y92710D02*
D03*
X-180260D02*
D03*
X-177720Y-11430D02*
D03*
X-167720D02*
D03*
X-171530Y-78740D02*
D03*
X-181530D02*
D03*
X-200820Y-158750D02*
D03*
X-210820D02*
D03*
D18*
X-165510Y24870D02*
D03*
X-172010D02*
D03*
X-178510D02*
D03*
X-185010D02*
D03*
Y69110D02*
D03*
X-178510D02*
D03*
X-172010D02*
D03*
X-165510D02*
D03*
D19*
X-167030Y-57890D02*
D03*
X-176530D02*
D03*
X-186030D02*
D03*
Y-31010D02*
D03*
X-176530D02*
D03*
X-167030D02*
D03*
D28*
X63838Y-49192D02*
Y13038D01*
X-82550Y-195580D02*
X63838Y-49192D01*
Y13038D02*
X76200Y25400D01*
X-82550Y-204007D02*
Y-195580D01*
Y-204007D02*
X-74213Y-212344D01*
X-76200Y127000D02*
X-64516Y115316D01*
Y86810D02*
Y115316D01*
X-75125Y76200D02*
X-64516Y86810D01*
X-165050Y-53850D02*
X-162990D01*
X-159860Y-50720D01*
X-167030Y-57890D02*
Y-55830D01*
X-165050Y-53850D01*
X-159860Y-50720D02*
X-147320D01*
X-167560Y-67010D02*
Y-58420D01*
X-167030Y-57890D01*
X-171530Y-78740D02*
Y-70980D01*
X-167560Y-67010D01*
X-183149Y-48260D02*
X-178510Y-52899D01*
Y-55910D02*
Y-52899D01*
X-205740Y-48260D02*
X-183149D01*
X-178510Y-55910D02*
X-176530Y-57890D01*
X-213106Y-53340D02*
Y-46126D01*
X-205740Y-38760D02*
Y-38260D01*
X-213106Y-46126D02*
X-205740Y-38760D01*
X-191770Y-92710D02*
Y-74676D01*
X-213106Y-53340D02*
X-191770Y-74676D01*
Y-92710D02*
X-181102Y-103378D01*
Y-154458D02*
Y-103378D01*
X-196691Y-170047D02*
X-181102Y-154458D01*
X-196691Y-200660D02*
Y-170047D01*
X-285750Y86360D02*
X-283874Y88236D01*
X-285750Y68500D02*
Y86360D01*
X-269110Y68500D02*
X-265220Y72390D01*
X-261220D01*
X-285750Y68500D02*
X-269110D01*
X-260350Y-200660D02*
X-238552Y-178862D01*
X-221432D01*
X-201320Y-158750D01*
X-200820D01*
X-200740Y-158670D02*
Y-140970D01*
X-200820Y-158750D02*
X-200740Y-158670D01*
Y-140970D02*
X-200660Y-140890D01*
Y-130890D02*
X-200620Y-130850D01*
X-188000D01*
X-187960Y-130810D01*
X-156210Y-3810D02*
Y1270D01*
X-171030Y16090D02*
Y23890D01*
Y16090D02*
X-156210Y1270D01*
X-172010Y24870D02*
X-171030Y23890D01*
X-178510Y11112D02*
X-175260Y7862D01*
X-178510Y11112D02*
Y24870D01*
X-175260Y6350D02*
Y7862D01*
X-234950Y57150D02*
Y71120D01*
X-236220Y72390D02*
X-234950Y71120D01*
X-256540Y93120D02*
Y105410D01*
X-257810Y106680D02*
X-256540Y105410D01*
X-258270Y91390D02*
X-256540Y93120D01*
X-261220Y91390D02*
X-258270D01*
X-251426Y68233D02*
Y80184D01*
X-240220Y91390D01*
X-236220D01*
X-285750Y58500D02*
X-261159D01*
X-251426Y68233D01*
X-199720Y154940D02*
X-195470D01*
X-189250Y148720D01*
Y92249D02*
X-185010Y88009D01*
Y69110D02*
Y88009D01*
X-189250Y92249D02*
Y148720D01*
X-165510Y88009D02*
X-151950Y101569D01*
Y114860D01*
X-149970Y116840D01*
X-145720D01*
X-165510Y69110D02*
Y88009D01*
X-172010Y91460D02*
X-170760Y92710D01*
X-170260D01*
X-172010Y69110D02*
Y91460D01*
X-178510Y69110D02*
Y91460D01*
X-179760Y92710D02*
X-178510Y91460D01*
X-180260Y92710D02*
X-179760D01*
X-203970Y116840D02*
X-199720D01*
X-220980Y114380D02*
X-206430D01*
X-203970Y116840D01*
X-236220Y91390D02*
X-236220Y91390D01*
X-236220Y91390D02*
Y114380D01*
X-236220Y114380D02*
X-220980D01*
X-236220Y114380D02*
X-236220Y114380D01*
X-220980Y113880D02*
Y114380D01*
Y113880D02*
X-199720Y92620D01*
Y61290D02*
Y92620D01*
Y61290D02*
X-180340Y41910D01*
X-137378D01*
X-135890Y40422D01*
Y37410D02*
Y40422D01*
X-147320Y25980D02*
X-135890Y37410D01*
X-147320Y25480D02*
Y25980D01*
X-165510Y24870D02*
X-164900Y25480D01*
X-147320D01*
X-147320Y-40720D02*
Y25480D01*
X-147320Y25480D02*
X-147320Y25480D01*
Y-40720D02*
X-147320Y-40720D01*
X-177720Y-11430D02*
X-177125Y-12025D01*
Y-30415D02*
X-176530Y-31010D01*
X-177125Y-30415D02*
Y-12025D01*
X-186030Y-31010D02*
X-176530D01*
X-174550Y-36001D02*
X-169831Y-40720D01*
X-147320D01*
X-174550Y-36001D02*
Y-32990D01*
X-176530Y-31010D02*
X-174550Y-32990D01*
X-185500Y-67010D02*
X-181530Y-70980D01*
X-186030Y-57890D02*
X-185500Y-58420D01*
X-181530Y-78740D02*
Y-70980D01*
X-185500Y-67010D02*
Y-58420D01*
X-181530Y-78740D02*
X-181030D01*
X-133033Y-200660D02*
Y-126737D01*
X-181030Y-78740D02*
X-133033Y-126737D01*
Y-200660D02*
X-64516Y-132143D01*
Y39116D01*
X-76200Y50800D02*
X-64516Y39116D01*
X-76200Y50800D02*
Y76200D01*
X-75125D01*
X-76200Y127000D02*
Y152400D01*
X-69374Y-200660D02*
X29686Y-101600D01*
X76200D01*
X-47868Y-212344D02*
X-36184Y-200660D01*
X-5715D01*
X-74213Y-212344D02*
X-47868D01*
X97790Y-96534D02*
Y29210D01*
X76200Y50800D02*
X97790Y29210D01*
X73392Y-113284D02*
X81040D01*
X57944Y-128733D02*
X73392Y-113284D01*
X81040D02*
X97790Y-96534D01*
X57944Y-200660D02*
Y-128733D01*
X76200Y76200D02*
X121602Y30798D01*
Y-200660D02*
Y30798D01*
X76200Y101600D02*
X96647D01*
X96865Y101818D01*
X110272D02*
X185261Y26829D01*
X96865Y101818D02*
X110272D01*
X185261Y-200660D02*
Y26829D01*
D29*
X248920Y-200660D02*
D03*
X185261D02*
D03*
X121602D02*
D03*
X57944D02*
D03*
X-5715D02*
D03*
X-69374D02*
D03*
X-133033D02*
D03*
X-196691D02*
D03*
X-260350D02*
D03*
X76200Y152400D02*
D03*
Y127000D02*
D03*
Y101600D02*
D03*
Y76200D02*
D03*
Y50800D02*
D03*
Y25400D02*
D03*
Y0D02*
D03*
Y-25400D02*
D03*
Y-50800D02*
D03*
Y-76200D02*
D03*
Y-101600D02*
D03*
Y-127000D02*
D03*
X-76200D02*
D03*
Y-101600D02*
D03*
Y-76200D02*
D03*
Y-50800D02*
D03*
Y-25400D02*
D03*
Y0D02*
D03*
Y25400D02*
D03*
Y50800D02*
D03*
Y76200D02*
D03*
Y101600D02*
D03*
Y127000D02*
D03*
Y152400D02*
D03*
D30*
X-187960Y-130810D02*
D03*
X-156210Y-3810D02*
D03*
X-175260Y6350D02*
D03*
X-257810Y106680D02*
D03*
X-234950Y57150D02*
D03*
M02*
