G04*
G04 #@! TF.GenerationSoftware,Altium Limited,Altium Designer,24.2.2 (26)*
G04*
G04 Layer_Color=8421504*
%FSLAX44Y44*%
%MOMM*%
G71*
G04*
G04 #@! TF.SameCoordinates,A8C72FA6-E4A7-4B70-B5D1-2EACB2D35129*
G04*
G04*
G04 #@! TF.FilePolarity,Positive*
G04*
G01*
G75*
%ADD14R,1.4000X0.6000*%
%ADD15R,0.5000X0.6000*%
%ADD16R,1.5000X0.6500*%
%ADD17R,0.6000X0.5000*%
%ADD18R,0.4500X1.4250*%
%ADD19R,0.6500X1.0620*%
D14*
X-236220Y91390D02*
D03*
Y72390D02*
D03*
X-261220D02*
D03*
Y81890D02*
D03*
Y91390D02*
D03*
D15*
X-285750Y58500D02*
D03*
Y68500D02*
D03*
X-285750Y86360D02*
D03*
Y96360D02*
D03*
X-220980Y114380D02*
D03*
Y124380D02*
D03*
X-236220Y124380D02*
D03*
Y114380D02*
D03*
X-147320Y35480D02*
D03*
Y25480D02*
D03*
X-205740Y-38260D02*
D03*
Y-48260D02*
D03*
X-147320Y-50720D02*
D03*
Y-40720D02*
D03*
X-200660Y-130890D02*
D03*
Y-140890D02*
D03*
D16*
X-199720Y116840D02*
D03*
Y129540D02*
D03*
Y142240D02*
D03*
Y154940D02*
D03*
X-145720D02*
D03*
Y142240D02*
D03*
Y129540D02*
D03*
Y116840D02*
D03*
D17*
X-170260Y92710D02*
D03*
X-180260D02*
D03*
X-177720Y-11430D02*
D03*
X-167720D02*
D03*
X-171530Y-78740D02*
D03*
X-181530D02*
D03*
X-200820Y-158750D02*
D03*
X-210820D02*
D03*
D18*
X-165510Y24870D02*
D03*
X-172010D02*
D03*
X-178510D02*
D03*
X-185010D02*
D03*
Y69110D02*
D03*
X-178510D02*
D03*
X-172010D02*
D03*
X-165510D02*
D03*
D19*
X-167030Y-57890D02*
D03*
X-176530D02*
D03*
X-186030D02*
D03*
Y-31010D02*
D03*
X-176530D02*
D03*
X-167030D02*
D03*
M02*
