G04*
G04 #@! TF.GenerationSoftware,Altium Limited,Altium Designer,24.2.2 (26)*
G04*
G04 Layer_Physical_Order=2*
G04 Layer_Color=16711680*
%FSLAX44Y44*%
%MOMM*%
G71*
G04*
G04 #@! TF.SameCoordinates,A8C72FA6-E4A7-4B70-B5D1-2EACB2D35129*
G04*
G04*
G04 #@! TF.FilePolarity,Positive*
G04*
G01*
G75*
%ADD28C,0.2540*%
%ADD29C,1.7780*%
%ADD30C,0.8128*%
G36*
X269376Y316230D02*
X265383Y313783D01*
X261248Y310252D01*
X257717Y306117D01*
X254876Y301481D01*
X252795Y296458D01*
X251526Y291171D01*
X251099Y285750D01*
X251526Y280329D01*
X252795Y275042D01*
X254876Y270019D01*
X257717Y265383D01*
X261248Y261248D01*
X265383Y257717D01*
X270019Y254876D01*
X275042Y252795D01*
X280329Y251526D01*
X285750Y251099D01*
X291171Y251526D01*
X296458Y252795D01*
X301481Y254876D01*
X306117Y257717D01*
X310252Y261248D01*
X313783Y265383D01*
X316230Y269376D01*
X317500Y269018D01*
Y16732D01*
X316230Y16374D01*
X313783Y20367D01*
X310252Y24502D01*
X306117Y28033D01*
X301481Y30874D01*
X296458Y32955D01*
X291171Y34224D01*
X285750Y34651D01*
X280329Y34224D01*
X275042Y32955D01*
X270019Y30874D01*
X265383Y28033D01*
X261248Y24502D01*
X257717Y20367D01*
X254876Y15731D01*
X252795Y10708D01*
X251526Y5421D01*
X251099Y0D01*
X251526Y-5421D01*
X252795Y-10708D01*
X254876Y-15731D01*
X257717Y-20367D01*
X261248Y-24502D01*
X265383Y-28033D01*
X270019Y-30874D01*
X275042Y-32955D01*
X280329Y-34224D01*
X285750Y-34651D01*
X291171Y-34224D01*
X296458Y-32955D01*
X301481Y-30874D01*
X306117Y-28033D01*
X310252Y-24502D01*
X313783Y-20367D01*
X316230Y-16374D01*
X317500Y-16732D01*
Y-269018D01*
X316230Y-269376D01*
X313783Y-265383D01*
X310252Y-261248D01*
X306117Y-257717D01*
X301481Y-254876D01*
X296458Y-252795D01*
X291171Y-251526D01*
X285750Y-251099D01*
X280329Y-251526D01*
X275042Y-252795D01*
X270019Y-254876D01*
X265383Y-257717D01*
X261248Y-261248D01*
X257717Y-265383D01*
X254876Y-270019D01*
X252795Y-275042D01*
X251526Y-280329D01*
X251099Y-285750D01*
X251526Y-291171D01*
X252795Y-296458D01*
X254876Y-301481D01*
X257717Y-306117D01*
X261248Y-310252D01*
X265383Y-313783D01*
X269376Y-316230D01*
X269018Y-317500D01*
X16732D01*
X16374Y-316230D01*
X20367Y-313783D01*
X24502Y-310252D01*
X28033Y-306117D01*
X30874Y-301481D01*
X32955Y-296458D01*
X34224Y-291171D01*
X34651Y-285750D01*
X34224Y-280329D01*
X32955Y-275042D01*
X30874Y-270019D01*
X28033Y-265383D01*
X24502Y-261248D01*
X20367Y-257717D01*
X15731Y-254876D01*
X10708Y-252795D01*
X5421Y-251526D01*
X0Y-251099D01*
X-5421Y-251526D01*
X-10708Y-252795D01*
X-15731Y-254876D01*
X-20367Y-257717D01*
X-24502Y-261248D01*
X-28033Y-265383D01*
X-30874Y-270019D01*
X-32955Y-275042D01*
X-34224Y-280329D01*
X-34651Y-285750D01*
X-34224Y-291171D01*
X-32955Y-296458D01*
X-30874Y-301481D01*
X-28033Y-306117D01*
X-24502Y-310252D01*
X-20367Y-313783D01*
X-16374Y-316230D01*
X-16732Y-317500D01*
X-269018D01*
X-269376Y-316230D01*
X-265383Y-313783D01*
X-261248Y-310252D01*
X-257717Y-306117D01*
X-254876Y-301481D01*
X-252795Y-296458D01*
X-251526Y-291171D01*
X-251099Y-285750D01*
X-251526Y-280329D01*
X-252795Y-275042D01*
X-254876Y-270019D01*
X-257717Y-265383D01*
X-261248Y-261248D01*
X-265383Y-257717D01*
X-270019Y-254876D01*
X-275042Y-252795D01*
X-280329Y-251526D01*
X-285750Y-251099D01*
X-291171Y-251526D01*
X-296458Y-252795D01*
X-301481Y-254876D01*
X-306117Y-257717D01*
X-310252Y-261248D01*
X-313783Y-265383D01*
X-316230Y-269376D01*
X-317500Y-269018D01*
Y-16732D01*
X-316230Y-16374D01*
X-313783Y-20367D01*
X-310252Y-24502D01*
X-306117Y-28033D01*
X-301481Y-30874D01*
X-296458Y-32955D01*
X-291171Y-34224D01*
X-285750Y-34651D01*
X-280329Y-34224D01*
X-275042Y-32955D01*
X-270019Y-30874D01*
X-265383Y-28033D01*
X-261248Y-24502D01*
X-257717Y-20367D01*
X-254876Y-15731D01*
X-252795Y-10708D01*
X-251526Y-5421D01*
X-251099Y0D01*
X-251526Y5421D01*
X-252795Y10708D01*
X-254876Y15731D01*
X-257717Y20367D01*
X-261248Y24502D01*
X-265383Y28033D01*
X-270019Y30874D01*
X-275042Y32955D01*
X-280329Y34224D01*
X-285750Y34651D01*
X-291171Y34224D01*
X-296458Y32955D01*
X-301481Y30874D01*
X-306117Y28033D01*
X-310252Y24502D01*
X-313783Y20367D01*
X-316230Y16374D01*
X-317500Y16732D01*
Y269018D01*
X-316230Y269376D01*
X-313783Y265383D01*
X-310252Y261248D01*
X-306117Y257717D01*
X-301481Y254876D01*
X-296458Y252795D01*
X-291171Y251526D01*
X-285750Y251099D01*
X-280329Y251526D01*
X-275042Y252795D01*
X-270019Y254876D01*
X-265383Y257717D01*
X-261248Y261248D01*
X-257717Y265383D01*
X-254876Y270019D01*
X-252795Y275042D01*
X-251526Y280329D01*
X-251099Y285750D01*
X-251526Y291171D01*
X-252795Y296458D01*
X-254876Y301481D01*
X-257717Y306117D01*
X-261248Y310252D01*
X-265383Y313783D01*
X-269376Y316230D01*
X-269018Y317500D01*
X269018D01*
X269376Y316230D01*
D02*
G37*
%LPC*%
G36*
X77571Y162814D02*
X74829D01*
X72180Y162104D01*
X69806Y160733D01*
X67867Y158794D01*
X66496Y156420D01*
X65786Y153771D01*
Y151029D01*
X66496Y148380D01*
X67867Y146006D01*
X69806Y144067D01*
X72180Y142696D01*
X74829Y141986D01*
X77571D01*
X80220Y142696D01*
X82594Y144067D01*
X84533Y146006D01*
X85904Y148380D01*
X86614Y151029D01*
Y153771D01*
X85904Y156420D01*
X84533Y158794D01*
X82594Y160733D01*
X80220Y162104D01*
X77571Y162814D01*
D02*
G37*
G36*
X-74829D02*
X-77571D01*
X-80220Y162104D01*
X-82594Y160733D01*
X-84533Y158794D01*
X-85904Y156420D01*
X-86614Y153771D01*
Y151029D01*
X-85904Y148380D01*
X-84533Y146006D01*
X-82594Y144067D01*
X-80220Y142696D01*
X-77571Y141986D01*
X-74829D01*
X-72180Y142696D01*
X-69806Y144067D01*
X-67867Y146006D01*
X-66496Y148380D01*
X-65786Y151029D01*
Y153771D01*
X-66496Y156420D01*
X-67867Y158794D01*
X-69806Y160733D01*
X-72180Y162104D01*
X-74829Y162814D01*
D02*
G37*
G36*
X77571Y137414D02*
X74829D01*
X72180Y136704D01*
X69806Y135333D01*
X67867Y133394D01*
X66496Y131020D01*
X65786Y128371D01*
Y125629D01*
X66496Y122980D01*
X67867Y120606D01*
X69806Y118667D01*
X72180Y117296D01*
X74829Y116586D01*
X77571D01*
X80220Y117296D01*
X82594Y118667D01*
X84533Y120606D01*
X85904Y122980D01*
X86614Y125629D01*
Y128371D01*
X85904Y131020D01*
X84533Y133394D01*
X82594Y135333D01*
X80220Y136704D01*
X77571Y137414D01*
D02*
G37*
G36*
X-74829D02*
X-77571D01*
X-80220Y136704D01*
X-82594Y135333D01*
X-84533Y133394D01*
X-85904Y131020D01*
X-86614Y128371D01*
Y125629D01*
X-85904Y122980D01*
X-84533Y120606D01*
X-82594Y118667D01*
X-80220Y117296D01*
X-77571Y116586D01*
X-74829D01*
X-72180Y117296D01*
X-69806Y118667D01*
X-67867Y120606D01*
X-66496Y122980D01*
X-65786Y125629D01*
Y128371D01*
X-66496Y131020D01*
X-67867Y133394D01*
X-69806Y135333D01*
X-72180Y136704D01*
X-74829Y137414D01*
D02*
G37*
G36*
X77571Y112014D02*
X74829D01*
X72180Y111304D01*
X69806Y109933D01*
X67867Y107994D01*
X66496Y105620D01*
X65786Y102971D01*
Y100229D01*
X66496Y97580D01*
X67867Y95206D01*
X69806Y93267D01*
X72180Y91896D01*
X74829Y91186D01*
X77571D01*
X80220Y91896D01*
X82594Y93267D01*
X84533Y95206D01*
X85904Y97580D01*
X86614Y100229D01*
Y102971D01*
X85904Y105620D01*
X84533Y107994D01*
X82594Y109933D01*
X80220Y111304D01*
X77571Y112014D01*
D02*
G37*
G36*
X-74829D02*
X-77571D01*
X-80220Y111304D01*
X-82594Y109933D01*
X-84533Y107994D01*
X-85904Y105620D01*
X-86614Y102971D01*
Y100229D01*
X-85904Y97580D01*
X-84533Y95206D01*
X-82594Y93267D01*
X-80220Y91896D01*
X-77571Y91186D01*
X-74829D01*
X-72180Y91896D01*
X-69806Y93267D01*
X-67867Y95206D01*
X-66496Y97580D01*
X-65786Y100229D01*
Y102971D01*
X-66496Y105620D01*
X-67867Y107994D01*
X-69806Y109933D01*
X-72180Y111304D01*
X-74829Y112014D01*
D02*
G37*
G36*
X77571Y86614D02*
X74829D01*
X72180Y85904D01*
X69806Y84533D01*
X67867Y82594D01*
X66496Y80220D01*
X65786Y77571D01*
Y74829D01*
X66496Y72180D01*
X67867Y69806D01*
X69806Y67867D01*
X72180Y66496D01*
X74829Y65786D01*
X77571D01*
X80220Y66496D01*
X82594Y67867D01*
X84533Y69806D01*
X85904Y72180D01*
X86614Y74829D01*
Y77571D01*
X85904Y80220D01*
X84533Y82594D01*
X82594Y84533D01*
X80220Y85904D01*
X77571Y86614D01*
D02*
G37*
G36*
X-74829D02*
X-77571D01*
X-80220Y85904D01*
X-82594Y84533D01*
X-84533Y82594D01*
X-85904Y80220D01*
X-86614Y77571D01*
Y74829D01*
X-85904Y72180D01*
X-84533Y69806D01*
X-82594Y67867D01*
X-80220Y66496D01*
X-77571Y65786D01*
X-74829D01*
X-72180Y66496D01*
X-69806Y67867D01*
X-67867Y69806D01*
X-66496Y72180D01*
X-65786Y74829D01*
Y77571D01*
X-66496Y80220D01*
X-67867Y82594D01*
X-69806Y84533D01*
X-72180Y85904D01*
X-74829Y86614D01*
D02*
G37*
G36*
X77571Y61214D02*
X74829D01*
X72180Y60504D01*
X69806Y59133D01*
X67867Y57194D01*
X66496Y54820D01*
X65786Y52171D01*
Y49429D01*
X66496Y46780D01*
X67867Y44406D01*
X69806Y42467D01*
X72180Y41096D01*
X74829Y40386D01*
X77571D01*
X80220Y41096D01*
X82594Y42467D01*
X84533Y44406D01*
X85904Y46780D01*
X86614Y49429D01*
Y52171D01*
X85904Y54820D01*
X84533Y57194D01*
X82594Y59133D01*
X80220Y60504D01*
X77571Y61214D01*
D02*
G37*
G36*
X-74829D02*
X-77571D01*
X-80220Y60504D01*
X-82594Y59133D01*
X-84533Y57194D01*
X-85904Y54820D01*
X-86614Y52171D01*
Y49429D01*
X-85904Y46780D01*
X-84533Y44406D01*
X-82594Y42467D01*
X-80220Y41096D01*
X-77571Y40386D01*
X-74829D01*
X-72180Y41096D01*
X-69806Y42467D01*
X-67867Y44406D01*
X-66496Y46780D01*
X-65786Y49429D01*
Y52171D01*
X-66496Y54820D01*
X-67867Y57194D01*
X-69806Y59133D01*
X-72180Y60504D01*
X-74829Y61214D01*
D02*
G37*
G36*
X77571Y35814D02*
X74829D01*
X72180Y35104D01*
X69806Y33733D01*
X67867Y31794D01*
X66496Y29420D01*
X65786Y26771D01*
Y24029D01*
X66496Y21380D01*
X67867Y19006D01*
X69806Y17067D01*
X72180Y15696D01*
X74829Y14986D01*
X77571D01*
X80220Y15696D01*
X82594Y17067D01*
X84533Y19006D01*
X85904Y21380D01*
X86614Y24029D01*
Y26771D01*
X85904Y29420D01*
X84533Y31794D01*
X82594Y33733D01*
X80220Y35104D01*
X77571Y35814D01*
D02*
G37*
G36*
X-74829D02*
X-77571D01*
X-80220Y35104D01*
X-82594Y33733D01*
X-84533Y31794D01*
X-85904Y29420D01*
X-86614Y26771D01*
Y24029D01*
X-85904Y21380D01*
X-84533Y19006D01*
X-82594Y17067D01*
X-80220Y15696D01*
X-77571Y14986D01*
X-74829D01*
X-72180Y15696D01*
X-69806Y17067D01*
X-67867Y19006D01*
X-66496Y21380D01*
X-65786Y24029D01*
Y26771D01*
X-66496Y29420D01*
X-67867Y31794D01*
X-69806Y33733D01*
X-72180Y35104D01*
X-74829Y35814D01*
D02*
G37*
G36*
X-256698Y112268D02*
X-258922D01*
X-260975Y111417D01*
X-262547Y109845D01*
X-263398Y107792D01*
Y105569D01*
X-262547Y103515D01*
X-260975Y101943D01*
X-258922Y101092D01*
X-256698D01*
X-256382Y101223D01*
X-236529Y81370D01*
Y62544D01*
X-238115Y61887D01*
X-239687Y60315D01*
X-240538Y58261D01*
Y56038D01*
X-239687Y53985D01*
X-238115Y52413D01*
X-236061Y51562D01*
X-233839D01*
X-233522Y51693D01*
X-186164Y4336D01*
X-186164Y4336D01*
X-185240Y3718D01*
X-184150Y3501D01*
X-184150Y3501D01*
X-180128D01*
X-179997Y3185D01*
X-178425Y1613D01*
X-176371Y762D01*
X-174149D01*
X-172095Y1613D01*
X-170523Y3185D01*
X-169672Y5239D01*
Y7462D01*
X-170523Y9515D01*
X-172095Y11087D01*
X-174149Y11938D01*
X-176371D01*
X-178425Y11087D01*
X-179997Y9515D01*
X-180128Y9199D01*
X-182970D01*
X-229493Y55722D01*
X-229362Y56038D01*
Y58261D01*
X-230213Y60315D01*
X-230831Y60934D01*
Y82550D01*
X-231048Y83640D01*
X-231666Y84564D01*
X-231666Y84564D01*
X-252353Y105252D01*
X-252222Y105569D01*
Y107792D01*
X-253073Y109845D01*
X-254645Y111417D01*
X-256698Y112268D01*
D02*
G37*
G36*
X77571Y10414D02*
X74829D01*
X72180Y9704D01*
X69806Y8333D01*
X67867Y6394D01*
X66496Y4020D01*
X65786Y1371D01*
Y-1371D01*
X66496Y-4020D01*
X67867Y-6394D01*
X69806Y-8333D01*
X72180Y-9704D01*
X74829Y-10414D01*
X77571D01*
X80220Y-9704D01*
X82594Y-8333D01*
X84533Y-6394D01*
X85904Y-4020D01*
X86614Y-1371D01*
Y1371D01*
X85904Y4020D01*
X84533Y6394D01*
X82594Y8333D01*
X80220Y9704D01*
X77571Y10414D01*
D02*
G37*
G36*
X-74829D02*
X-77571D01*
X-80220Y9704D01*
X-82594Y8333D01*
X-84533Y6394D01*
X-85904Y4020D01*
X-86614Y1371D01*
Y-1371D01*
X-85904Y-4020D01*
X-84533Y-6394D01*
X-82594Y-8333D01*
X-80220Y-9704D01*
X-77571Y-10414D01*
X-74829D01*
X-72180Y-9704D01*
X-69806Y-8333D01*
X-67867Y-6394D01*
X-66496Y-4020D01*
X-65786Y-1371D01*
Y1371D01*
X-66496Y4020D01*
X-67867Y6394D01*
X-69806Y8333D01*
X-72180Y9704D01*
X-74829Y10414D01*
D02*
G37*
G36*
X0Y34651D02*
X-5421Y34224D01*
X-10708Y32955D01*
X-15731Y30874D01*
X-20367Y28033D01*
X-24502Y24502D01*
X-28033Y20367D01*
X-30874Y15731D01*
X-32955Y10708D01*
X-34224Y5421D01*
X-34651Y0D01*
X-34224Y-5421D01*
X-32955Y-10708D01*
X-30874Y-15731D01*
X-28033Y-20367D01*
X-24502Y-24502D01*
X-20367Y-28033D01*
X-15731Y-30874D01*
X-10708Y-32955D01*
X-5421Y-34224D01*
X0Y-34651D01*
X5421Y-34224D01*
X10708Y-32955D01*
X15731Y-30874D01*
X20367Y-28033D01*
X24502Y-24502D01*
X28033Y-20367D01*
X30874Y-15731D01*
X32955Y-10708D01*
X34224Y-5421D01*
X34651Y0D01*
X34224Y5421D01*
X32955Y10708D01*
X30874Y15731D01*
X28033Y20367D01*
X24502Y24502D01*
X20367Y28033D01*
X15731Y30874D01*
X10708Y32955D01*
X5421Y34224D01*
X0Y34651D01*
D02*
G37*
G36*
X77571Y-14986D02*
X74829D01*
X72180Y-15696D01*
X69806Y-17067D01*
X67867Y-19006D01*
X66496Y-21380D01*
X65786Y-24029D01*
Y-26771D01*
X66496Y-29420D01*
X67867Y-31794D01*
X69806Y-33733D01*
X72180Y-35104D01*
X74829Y-35814D01*
X77571D01*
X80220Y-35104D01*
X82594Y-33733D01*
X84533Y-31794D01*
X85904Y-29420D01*
X86614Y-26771D01*
Y-24029D01*
X85904Y-21380D01*
X84533Y-19006D01*
X82594Y-17067D01*
X80220Y-15696D01*
X77571Y-14986D01*
D02*
G37*
G36*
X-74829D02*
X-77571D01*
X-80220Y-15696D01*
X-82594Y-17067D01*
X-84533Y-19006D01*
X-85904Y-21380D01*
X-86614Y-24029D01*
Y-26771D01*
X-85904Y-29420D01*
X-84533Y-31794D01*
X-82594Y-33733D01*
X-80220Y-35104D01*
X-77571Y-35814D01*
X-74829D01*
X-72180Y-35104D01*
X-69806Y-33733D01*
X-67867Y-31794D01*
X-66496Y-29420D01*
X-65786Y-26771D01*
Y-24029D01*
X-66496Y-21380D01*
X-67867Y-19006D01*
X-69806Y-17067D01*
X-72180Y-15696D01*
X-74829Y-14986D01*
D02*
G37*
G36*
X77571Y-40386D02*
X74829D01*
X72180Y-41096D01*
X69806Y-42467D01*
X67867Y-44406D01*
X66496Y-46780D01*
X65786Y-49429D01*
Y-52171D01*
X66496Y-54820D01*
X67867Y-57194D01*
X69806Y-59133D01*
X72180Y-60504D01*
X74829Y-61214D01*
X77571D01*
X80220Y-60504D01*
X82594Y-59133D01*
X84533Y-57194D01*
X85904Y-54820D01*
X86614Y-52171D01*
Y-49429D01*
X85904Y-46780D01*
X84533Y-44406D01*
X82594Y-42467D01*
X80220Y-41096D01*
X77571Y-40386D01*
D02*
G37*
G36*
X-74829D02*
X-77571D01*
X-80220Y-41096D01*
X-82594Y-42467D01*
X-84533Y-44406D01*
X-85904Y-46780D01*
X-86614Y-49429D01*
Y-52171D01*
X-85904Y-54820D01*
X-84533Y-57194D01*
X-82594Y-59133D01*
X-80220Y-60504D01*
X-77571Y-61214D01*
X-74829D01*
X-72180Y-60504D01*
X-69806Y-59133D01*
X-67867Y-57194D01*
X-66496Y-54820D01*
X-65786Y-52171D01*
Y-49429D01*
X-66496Y-46780D01*
X-67867Y-44406D01*
X-69806Y-42467D01*
X-72180Y-41096D01*
X-74829Y-40386D01*
D02*
G37*
G36*
X77571Y-65786D02*
X74829D01*
X72180Y-66496D01*
X69806Y-67867D01*
X67867Y-69806D01*
X66496Y-72180D01*
X65786Y-74829D01*
Y-77571D01*
X66496Y-80220D01*
X67867Y-82594D01*
X69806Y-84533D01*
X72180Y-85904D01*
X74829Y-86614D01*
X77571D01*
X80220Y-85904D01*
X82594Y-84533D01*
X84533Y-82594D01*
X85904Y-80220D01*
X86614Y-77571D01*
Y-74829D01*
X85904Y-72180D01*
X84533Y-69806D01*
X82594Y-67867D01*
X80220Y-66496D01*
X77571Y-65786D01*
D02*
G37*
G36*
X-74829D02*
X-77571D01*
X-80220Y-66496D01*
X-82594Y-67867D01*
X-84533Y-69806D01*
X-85904Y-72180D01*
X-86614Y-74829D01*
Y-77571D01*
X-85904Y-80220D01*
X-84533Y-82594D01*
X-82594Y-84533D01*
X-80220Y-85904D01*
X-77571Y-86614D01*
X-74829D01*
X-72180Y-85904D01*
X-69806Y-84533D01*
X-67867Y-82594D01*
X-66496Y-80220D01*
X-65786Y-77571D01*
Y-74829D01*
X-66496Y-72180D01*
X-67867Y-69806D01*
X-69806Y-67867D01*
X-72180Y-66496D01*
X-74829Y-65786D01*
D02*
G37*
G36*
X77571Y-91186D02*
X74829D01*
X72180Y-91896D01*
X69806Y-93267D01*
X67867Y-95206D01*
X66496Y-97580D01*
X65786Y-100229D01*
Y-102971D01*
X66496Y-105620D01*
X67867Y-107994D01*
X69806Y-109933D01*
X72180Y-111304D01*
X74829Y-112014D01*
X77571D01*
X80220Y-111304D01*
X82594Y-109933D01*
X84533Y-107994D01*
X85904Y-105620D01*
X86614Y-102971D01*
Y-100229D01*
X85904Y-97580D01*
X84533Y-95206D01*
X82594Y-93267D01*
X80220Y-91896D01*
X77571Y-91186D01*
D02*
G37*
G36*
X-74829D02*
X-77571D01*
X-80220Y-91896D01*
X-82594Y-93267D01*
X-84533Y-95206D01*
X-85904Y-97580D01*
X-86614Y-100229D01*
Y-102971D01*
X-85904Y-105620D01*
X-84533Y-107994D01*
X-82594Y-109933D01*
X-80220Y-111304D01*
X-77571Y-112014D01*
X-74829D01*
X-72180Y-111304D01*
X-69806Y-109933D01*
X-67867Y-107994D01*
X-66496Y-105620D01*
X-65786Y-102971D01*
Y-100229D01*
X-66496Y-97580D01*
X-67867Y-95206D01*
X-69806Y-93267D01*
X-72180Y-91896D01*
X-74829Y-91186D01*
D02*
G37*
G36*
X-155098Y1778D02*
X-157322D01*
X-159375Y927D01*
X-160947Y-645D01*
X-161798Y-2698D01*
Y-4922D01*
X-160947Y-6975D01*
X-159375Y-8547D01*
X-159059Y-8678D01*
Y-97880D01*
X-186532Y-125353D01*
X-186849Y-125222D01*
X-189072D01*
X-191125Y-126073D01*
X-192697Y-127645D01*
X-193548Y-129698D01*
Y-131922D01*
X-192697Y-133975D01*
X-191125Y-135547D01*
X-189072Y-136398D01*
X-186849D01*
X-184795Y-135547D01*
X-183223Y-133975D01*
X-182372Y-131922D01*
Y-129698D01*
X-182503Y-129382D01*
X-154196Y-101074D01*
X-153578Y-100150D01*
X-153361Y-99060D01*
X-153361Y-99060D01*
Y-8678D01*
X-153045Y-8547D01*
X-151473Y-6975D01*
X-150622Y-4922D01*
Y-2698D01*
X-151473Y-645D01*
X-153045Y927D01*
X-155098Y1778D01*
D02*
G37*
G36*
X77705Y-115570D02*
X77470D01*
Y-125730D01*
X87630D01*
Y-125495D01*
X86851Y-122588D01*
X85346Y-119982D01*
X83218Y-117854D01*
X80612Y-116349D01*
X77705Y-115570D01*
D02*
G37*
G36*
X74930D02*
X74695D01*
X71788Y-116349D01*
X69182Y-117854D01*
X67054Y-119982D01*
X65549Y-122588D01*
X64770Y-125495D01*
Y-125730D01*
X74930D01*
Y-115570D01*
D02*
G37*
G36*
X-74829Y-116586D02*
X-77571D01*
X-80220Y-117296D01*
X-82594Y-118667D01*
X-84533Y-120606D01*
X-85904Y-122980D01*
X-86614Y-125629D01*
Y-128371D01*
X-85904Y-131020D01*
X-84533Y-133394D01*
X-82594Y-135333D01*
X-80220Y-136704D01*
X-77571Y-137414D01*
X-74829D01*
X-72180Y-136704D01*
X-69806Y-135333D01*
X-67867Y-133394D01*
X-66496Y-131020D01*
X-65786Y-128371D01*
Y-125629D01*
X-66496Y-122980D01*
X-67867Y-120606D01*
X-69806Y-118667D01*
X-72180Y-117296D01*
X-74829Y-116586D01*
D02*
G37*
G36*
X87630Y-128270D02*
X77470D01*
Y-138430D01*
X77705D01*
X80612Y-137651D01*
X83218Y-136146D01*
X85346Y-134018D01*
X86851Y-131412D01*
X87630Y-128505D01*
Y-128270D01*
D02*
G37*
G36*
X74930D02*
X64770D01*
Y-128505D01*
X65549Y-131412D01*
X67054Y-134018D01*
X69182Y-136146D01*
X71788Y-137651D01*
X74695Y-138430D01*
X74930D01*
Y-128270D01*
D02*
G37*
G36*
X250425Y-189230D02*
X250190D01*
Y-199390D01*
X260350D01*
Y-199155D01*
X259571Y-196248D01*
X258066Y-193642D01*
X255938Y-191514D01*
X253332Y-190009D01*
X250425Y-189230D01*
D02*
G37*
G36*
X247650D02*
X247415D01*
X244508Y-190009D01*
X241902Y-191514D01*
X239774Y-193642D01*
X238269Y-196248D01*
X237490Y-199155D01*
Y-199390D01*
X247650D01*
Y-189230D01*
D02*
G37*
G36*
X186632Y-190246D02*
X183890D01*
X181242Y-190956D01*
X178867Y-192327D01*
X176928Y-194266D01*
X175557Y-196640D01*
X174847Y-199289D01*
Y-202031D01*
X175557Y-204680D01*
X176928Y-207054D01*
X178867Y-208993D01*
X181242Y-210364D01*
X183890Y-211074D01*
X186632D01*
X189281Y-210364D01*
X191656Y-208993D01*
X193594Y-207054D01*
X194965Y-204680D01*
X195675Y-202031D01*
Y-199289D01*
X194965Y-196640D01*
X193594Y-194266D01*
X191656Y-192327D01*
X189281Y-190956D01*
X186632Y-190246D01*
D02*
G37*
G36*
X122973D02*
X120232D01*
X117583Y-190956D01*
X115208Y-192327D01*
X113269Y-194266D01*
X111898Y-196640D01*
X111188Y-199289D01*
Y-202031D01*
X111898Y-204680D01*
X113269Y-207054D01*
X115208Y-208993D01*
X117583Y-210364D01*
X120232Y-211074D01*
X122973D01*
X125622Y-210364D01*
X127997Y-208993D01*
X129936Y-207054D01*
X131307Y-204680D01*
X132016Y-202031D01*
Y-199289D01*
X131307Y-196640D01*
X129936Y-194266D01*
X127997Y-192327D01*
X125622Y-190956D01*
X122973Y-190246D01*
D02*
G37*
G36*
X59315D02*
X56573D01*
X53924Y-190956D01*
X51549Y-192327D01*
X49611Y-194266D01*
X48239Y-196640D01*
X47530Y-199289D01*
Y-202031D01*
X48239Y-204680D01*
X49611Y-207054D01*
X51549Y-208993D01*
X53924Y-210364D01*
X56573Y-211074D01*
X59315D01*
X61963Y-210364D01*
X64338Y-208993D01*
X66277Y-207054D01*
X67648Y-204680D01*
X68358Y-202031D01*
Y-199289D01*
X67648Y-196640D01*
X66277Y-194266D01*
X64338Y-192327D01*
X61963Y-190956D01*
X59315Y-190246D01*
D02*
G37*
G36*
X-4344D02*
X-7086D01*
X-9735Y-190956D01*
X-12109Y-192327D01*
X-14048Y-194266D01*
X-15419Y-196640D01*
X-16129Y-199289D01*
Y-202031D01*
X-15419Y-204680D01*
X-14048Y-207054D01*
X-12109Y-208993D01*
X-9735Y-210364D01*
X-7086Y-211074D01*
X-4344D01*
X-1695Y-210364D01*
X679Y-208993D01*
X2618Y-207054D01*
X3989Y-204680D01*
X4699Y-202031D01*
Y-199289D01*
X3989Y-196640D01*
X2618Y-194266D01*
X679Y-192327D01*
X-1695Y-190956D01*
X-4344Y-190246D01*
D02*
G37*
G36*
X-68003D02*
X-70745D01*
X-73393Y-190956D01*
X-75768Y-192327D01*
X-77707Y-194266D01*
X-79078Y-196640D01*
X-79788Y-199289D01*
Y-202031D01*
X-79078Y-204680D01*
X-77707Y-207054D01*
X-75768Y-208993D01*
X-73393Y-210364D01*
X-70745Y-211074D01*
X-68003D01*
X-65354Y-210364D01*
X-62979Y-208993D01*
X-61041Y-207054D01*
X-59669Y-204680D01*
X-58960Y-202031D01*
Y-199289D01*
X-59669Y-196640D01*
X-61041Y-194266D01*
X-62979Y-192327D01*
X-65354Y-190956D01*
X-68003Y-190246D01*
D02*
G37*
G36*
X-131662D02*
X-134403D01*
X-137052Y-190956D01*
X-139427Y-192327D01*
X-141366Y-194266D01*
X-142737Y-196640D01*
X-143447Y-199289D01*
Y-202031D01*
X-142737Y-204680D01*
X-141366Y-207054D01*
X-139427Y-208993D01*
X-137052Y-210364D01*
X-134403Y-211074D01*
X-131662D01*
X-129013Y-210364D01*
X-126638Y-208993D01*
X-124699Y-207054D01*
X-123328Y-204680D01*
X-122619Y-202031D01*
Y-199289D01*
X-123328Y-196640D01*
X-124699Y-194266D01*
X-126638Y-192327D01*
X-129013Y-190956D01*
X-131662Y-190246D01*
D02*
G37*
G36*
X-195320D02*
X-198062D01*
X-200711Y-190956D01*
X-203086Y-192327D01*
X-205025Y-194266D01*
X-206395Y-196640D01*
X-207105Y-199289D01*
Y-202031D01*
X-206395Y-204680D01*
X-205025Y-207054D01*
X-203086Y-208993D01*
X-200711Y-210364D01*
X-198062Y-211074D01*
X-195320D01*
X-192672Y-210364D01*
X-190297Y-208993D01*
X-188358Y-207054D01*
X-186987Y-204680D01*
X-186277Y-202031D01*
Y-199289D01*
X-186987Y-196640D01*
X-188358Y-194266D01*
X-190297Y-192327D01*
X-192672Y-190956D01*
X-195320Y-190246D01*
D02*
G37*
G36*
X-258979D02*
X-261721D01*
X-264370Y-190956D01*
X-266744Y-192327D01*
X-268683Y-194266D01*
X-270054Y-196640D01*
X-270764Y-199289D01*
Y-202031D01*
X-270054Y-204680D01*
X-268683Y-207054D01*
X-266744Y-208993D01*
X-264370Y-210364D01*
X-261721Y-211074D01*
X-258979D01*
X-256330Y-210364D01*
X-253956Y-208993D01*
X-252017Y-207054D01*
X-250646Y-204680D01*
X-249936Y-202031D01*
Y-199289D01*
X-250646Y-196640D01*
X-252017Y-194266D01*
X-253956Y-192327D01*
X-256330Y-190956D01*
X-258979Y-190246D01*
D02*
G37*
G36*
X260350Y-201930D02*
X250190D01*
Y-212090D01*
X250425D01*
X253332Y-211311D01*
X255938Y-209806D01*
X258066Y-207678D01*
X259571Y-205072D01*
X260350Y-202165D01*
Y-201930D01*
D02*
G37*
G36*
X247650D02*
X237490D01*
Y-202165D01*
X238269Y-205072D01*
X239774Y-207678D01*
X241902Y-209806D01*
X244508Y-211311D01*
X247415Y-212090D01*
X247650D01*
Y-201930D01*
D02*
G37*
G36*
X250107Y-229743D02*
X247733D01*
X245440Y-230357D01*
X243383Y-231545D01*
X241705Y-233223D01*
X240518Y-235280D01*
X239903Y-237573D01*
Y-239947D01*
X240518Y-242240D01*
X241705Y-244297D01*
X243383Y-245975D01*
X245440Y-247162D01*
X247733Y-247777D01*
X250107D01*
X252400Y-247162D01*
X254457Y-245975D01*
X256135Y-244297D01*
X257323Y-242240D01*
X257937Y-239947D01*
Y-237573D01*
X257323Y-235280D01*
X256135Y-233223D01*
X254457Y-231545D01*
X252400Y-230357D01*
X250107Y-229743D01*
D02*
G37*
G36*
X186448D02*
X184074D01*
X181781Y-230357D01*
X179725Y-231545D01*
X178046Y-233223D01*
X176859Y-235280D01*
X176244Y-237573D01*
Y-239947D01*
X176859Y-242240D01*
X178046Y-244297D01*
X179725Y-245975D01*
X181781Y-247162D01*
X184074Y-247777D01*
X186448D01*
X188742Y-247162D01*
X190798Y-245975D01*
X192477Y-244297D01*
X193664Y-242240D01*
X194278Y-239947D01*
Y-237573D01*
X193664Y-235280D01*
X192477Y-233223D01*
X190798Y-231545D01*
X188742Y-230357D01*
X186448Y-229743D01*
D02*
G37*
G36*
X122790D02*
X120415D01*
X118122Y-230357D01*
X116066Y-231545D01*
X114387Y-233223D01*
X113200Y-235280D01*
X112585Y-237573D01*
Y-239947D01*
X113200Y-242240D01*
X114387Y-244297D01*
X116066Y-245975D01*
X118122Y-247162D01*
X120415Y-247777D01*
X122790D01*
X125083Y-247162D01*
X127139Y-245975D01*
X128818Y-244297D01*
X130005Y-242240D01*
X130619Y-239947D01*
Y-237573D01*
X130005Y-235280D01*
X128818Y-233223D01*
X127139Y-231545D01*
X125083Y-230357D01*
X122790Y-229743D01*
D02*
G37*
G36*
X59131D02*
X56757D01*
X54463Y-230357D01*
X52407Y-231545D01*
X50728Y-233223D01*
X49541Y-235280D01*
X48927Y-237573D01*
Y-239947D01*
X49541Y-242240D01*
X50728Y-244297D01*
X52407Y-245975D01*
X54463Y-247162D01*
X56757Y-247777D01*
X59131D01*
X61424Y-247162D01*
X63480Y-245975D01*
X65159Y-244297D01*
X66346Y-242240D01*
X66961Y-239947D01*
Y-237573D01*
X66346Y-235280D01*
X65159Y-233223D01*
X63480Y-231545D01*
X61424Y-230357D01*
X59131Y-229743D01*
D02*
G37*
G36*
X-4528D02*
X-6902D01*
X-9195Y-230357D01*
X-11252Y-231545D01*
X-12930Y-233223D01*
X-14117Y-235280D01*
X-14732Y-237573D01*
Y-239947D01*
X-14117Y-242240D01*
X-12930Y-244297D01*
X-11252Y-245975D01*
X-9195Y-247162D01*
X-6902Y-247777D01*
X-4528D01*
X-2235Y-247162D01*
X-178Y-245975D01*
X1500Y-244297D01*
X2688Y-242240D01*
X3302Y-239947D01*
Y-237573D01*
X2688Y-235280D01*
X1500Y-233223D01*
X-178Y-231545D01*
X-2235Y-230357D01*
X-4528Y-229743D01*
D02*
G37*
G36*
X-68187D02*
X-70561D01*
X-72854Y-230357D01*
X-74910Y-231545D01*
X-76589Y-233223D01*
X-77776Y-235280D01*
X-78391Y-237573D01*
Y-239947D01*
X-77776Y-242240D01*
X-76589Y-244297D01*
X-74910Y-245975D01*
X-72854Y-247162D01*
X-70561Y-247777D01*
X-68187D01*
X-65893Y-247162D01*
X-63837Y-245975D01*
X-62158Y-244297D01*
X-60971Y-242240D01*
X-60357Y-239947D01*
Y-237573D01*
X-60971Y-235280D01*
X-62158Y-233223D01*
X-63837Y-231545D01*
X-65893Y-230357D01*
X-68187Y-229743D01*
D02*
G37*
G36*
X-131845D02*
X-134220D01*
X-136513Y-230357D01*
X-138569Y-231545D01*
X-140248Y-233223D01*
X-141435Y-235280D01*
X-142050Y-237573D01*
Y-239947D01*
X-141435Y-242240D01*
X-140248Y-244297D01*
X-138569Y-245975D01*
X-136513Y-247162D01*
X-134220Y-247777D01*
X-131845D01*
X-129552Y-247162D01*
X-127496Y-245975D01*
X-125817Y-244297D01*
X-124630Y-242240D01*
X-124016Y-239947D01*
Y-237573D01*
X-124630Y-235280D01*
X-125817Y-233223D01*
X-127496Y-231545D01*
X-129552Y-230357D01*
X-131845Y-229743D01*
D02*
G37*
G36*
X-195504D02*
X-197878D01*
X-200172Y-230357D01*
X-202228Y-231545D01*
X-203907Y-233223D01*
X-205094Y-235280D01*
X-205708Y-237573D01*
Y-239947D01*
X-205094Y-242240D01*
X-203907Y-244297D01*
X-202228Y-245975D01*
X-200172Y-247162D01*
X-197878Y-247777D01*
X-195504D01*
X-193211Y-247162D01*
X-191155Y-245975D01*
X-189476Y-244297D01*
X-188289Y-242240D01*
X-187674Y-239947D01*
Y-237573D01*
X-188289Y-235280D01*
X-189476Y-233223D01*
X-191155Y-231545D01*
X-193211Y-230357D01*
X-195504Y-229743D01*
D02*
G37*
G36*
X-259163D02*
X-261537D01*
X-263830Y-230357D01*
X-265887Y-231545D01*
X-267565Y-233223D01*
X-268752Y-235280D01*
X-269367Y-237573D01*
Y-239947D01*
X-268752Y-242240D01*
X-267565Y-244297D01*
X-265887Y-245975D01*
X-263830Y-247162D01*
X-261537Y-247777D01*
X-259163D01*
X-256870Y-247162D01*
X-254813Y-245975D01*
X-253135Y-244297D01*
X-251947Y-242240D01*
X-251333Y-239947D01*
Y-237573D01*
X-251947Y-235280D01*
X-253135Y-233223D01*
X-254813Y-231545D01*
X-256870Y-230357D01*
X-259163Y-229743D01*
D02*
G37*
%LPD*%
D28*
X-187960Y-130810D02*
X-156210Y-99060D01*
Y-3810D01*
X-184150Y6350D02*
X-175260D01*
X-234950Y57150D02*
X-184150Y6350D01*
X-256540Y105410D02*
Y106680D01*
X-234950Y58420D02*
X-233680Y59690D01*
X-234950Y57150D02*
Y58420D01*
X-233680Y59690D02*
Y82550D01*
X-256540Y105410D02*
X-233680Y82550D01*
X-257810Y106680D02*
X-256540D01*
D29*
X248920Y-200660D02*
D03*
X185261D02*
D03*
X121602D02*
D03*
X57944D02*
D03*
X-5715D02*
D03*
X-69374D02*
D03*
X-133033D02*
D03*
X-196691D02*
D03*
X-260350D02*
D03*
X76200Y152400D02*
D03*
Y127000D02*
D03*
Y101600D02*
D03*
Y76200D02*
D03*
Y50800D02*
D03*
Y25400D02*
D03*
Y0D02*
D03*
Y-25400D02*
D03*
Y-50800D02*
D03*
Y-76200D02*
D03*
Y-101600D02*
D03*
Y-127000D02*
D03*
X-76200D02*
D03*
Y-101600D02*
D03*
Y-76200D02*
D03*
Y-50800D02*
D03*
Y-25400D02*
D03*
Y0D02*
D03*
Y25400D02*
D03*
Y50800D02*
D03*
Y76200D02*
D03*
Y101600D02*
D03*
Y127000D02*
D03*
Y152400D02*
D03*
D30*
X-187960Y-130810D02*
D03*
X-156210Y-3810D02*
D03*
X-175260Y6350D02*
D03*
X-257810Y106680D02*
D03*
X-234950Y57150D02*
D03*
M02*
