G04*
G04 #@! TF.GenerationSoftware,Altium Limited,Altium Designer,24.2.2 (26)*
G04*
G04 Layer_Color=65535*
%FSLAX44Y44*%
%MOMM*%
G71*
G04*
G04 #@! TF.SameCoordinates,A8C72FA6-E4A7-4B70-B5D1-2EACB2D35129*
G04*
G04*
G04 #@! TF.FilePolarity,Positive*
G04*
G01*
G75*
%ADD10C,0.2000*%
%ADD11C,0.1524*%
%ADD12C,0.1778*%
%ADD13C,0.2032*%
D10*
X-268220Y96890D02*
X-254220D01*
X-250720Y67390D02*
Y96390D01*
Y67390D02*
X-246720D01*
Y96390D01*
X-250720D02*
X-246720D01*
X-153220Y110090D02*
X-138220D01*
X-156720Y111390D02*
Y160390D01*
X-188720D02*
X-156720D01*
X-188720Y111390D02*
Y160390D01*
Y111390D02*
X-156720D01*
X-159760Y61990D02*
Y76240D01*
X-190260Y58490D02*
X-160260D01*
X-190260Y35490D02*
Y58490D01*
Y35490D02*
X-160260D01*
Y58490D01*
X-160280Y-36330D02*
Y-25700D01*
X-191650Y-39830D02*
X-161410D01*
X-191650Y-49070D02*
Y-39830D01*
Y-49070D02*
X-161410D01*
Y-39830D01*
D11*
X-290576Y53340D02*
Y61787D01*
Y53340D02*
X-281047D01*
X-280924Y53463D02*
Y61853D01*
X-281047Y53340D02*
X-280924Y53463D01*
Y65505D02*
Y73660D01*
X-290576D02*
X-280924D01*
X-290576Y65478D02*
Y73660D01*
X-290576Y81200D02*
Y89647D01*
Y81200D02*
X-281047D01*
X-280924Y81323D02*
Y89713D01*
X-281047Y81200D02*
X-280924Y81323D01*
Y93365D02*
Y101520D01*
X-290576D02*
X-280924D01*
X-290576Y93338D02*
Y101520D01*
X-216154Y109220D02*
Y117402D01*
X-225806Y109220D02*
X-216154D01*
X-225806D02*
Y117375D01*
Y129417D02*
X-225683Y129540D01*
X-225806Y121027D02*
Y129417D01*
X-225683Y129540D02*
X-216154D01*
Y121093D02*
Y129540D01*
X-241046Y121358D02*
Y129540D01*
X-231394D01*
Y121385D02*
Y129540D01*
X-231517Y109220D02*
X-231394Y109343D01*
Y117733D01*
X-241046Y109220D02*
X-231517D01*
X-241046D02*
Y117667D01*
X-173282Y97536D02*
X-165100D01*
Y87884D02*
Y97536D01*
X-173255Y87884D02*
X-165100D01*
X-185420Y88007D02*
X-185297Y87884D01*
X-176907D01*
X-185420Y88007D02*
Y97536D01*
X-176973D01*
X-152146Y32458D02*
Y40640D01*
X-142494D01*
Y32485D02*
Y40640D01*
X-142617Y20320D02*
X-142494Y20443D01*
Y28833D01*
X-152146Y20320D02*
X-142617D01*
X-152146D02*
Y28767D01*
X-182880Y-16256D02*
X-174698D01*
X-182880D02*
Y-6604D01*
X-174725D01*
X-162683D02*
X-162560Y-6727D01*
X-171073Y-6604D02*
X-162683D01*
X-162560Y-16256D02*
Y-6727D01*
X-171007Y-16256D02*
X-162560D01*
X-210566Y-41282D02*
Y-33100D01*
X-200914D01*
Y-41255D02*
Y-33100D01*
X-201037Y-53420D02*
X-200914Y-53297D01*
Y-44907D01*
X-210566Y-53420D02*
X-201037D01*
X-210566D02*
Y-44973D01*
X-142494Y-55880D02*
Y-47698D01*
X-152146Y-55880D02*
X-142494D01*
X-152146D02*
Y-47725D01*
Y-35683D02*
X-152023Y-35560D01*
X-152146Y-44073D02*
Y-35683D01*
X-152023Y-35560D02*
X-142494D01*
Y-44007D02*
Y-35560D01*
X-174552Y-73914D02*
X-166370D01*
Y-83566D02*
Y-73914D01*
X-174525Y-83566D02*
X-166370D01*
X-186690Y-83443D02*
X-186567Y-83566D01*
X-178177D01*
X-186690Y-83443D02*
Y-73914D01*
X-178243D01*
X-205486Y-133912D02*
Y-125730D01*
X-195834D01*
Y-133885D02*
Y-125730D01*
X-195957Y-146050D02*
X-195834Y-145927D01*
Y-137537D01*
X-205486Y-146050D02*
X-195957D01*
X-205486D02*
Y-137603D01*
X-203842Y-153924D02*
X-195660D01*
Y-163576D02*
Y-153924D01*
X-203815Y-163576D02*
X-195660D01*
X-215980Y-163453D02*
X-215857Y-163576D01*
X-207467D01*
X-215980Y-163453D02*
Y-153924D01*
X-207533D01*
X-101600Y-152400D02*
X101600D01*
Y177800D01*
X-101600D02*
X101600D01*
X-101600Y-152400D02*
Y177800D01*
X0Y-25400D02*
Y25400D01*
X-25400Y0D02*
X25400D01*
D12*
X132588Y174496D02*
Y166878D01*
X136397D01*
X137666Y168148D01*
Y173226D01*
X136397Y174496D01*
X132588D01*
X145284Y173226D02*
X144014Y174496D01*
X141475D01*
X140205Y173226D01*
Y171956D01*
X141475Y170687D01*
X144014D01*
X145284Y169417D01*
Y168148D01*
X144014Y166878D01*
X141475D01*
X140205Y168148D01*
X147823Y166878D02*
Y174496D01*
X151632D01*
X152901Y173226D01*
Y170687D01*
X151632Y169417D01*
X147823D01*
X168137Y166878D02*
X163058D01*
X168137Y171956D01*
Y173226D01*
X166867Y174496D01*
X164328D01*
X163058Y173226D01*
X170676D02*
X171945Y174496D01*
X174485D01*
X175754Y173226D01*
Y168148D01*
X174485Y166878D01*
X171945D01*
X170676Y168148D01*
Y173226D01*
X183372Y166878D02*
X178293D01*
X183372Y171956D01*
Y173226D01*
X182102Y174496D01*
X179563D01*
X178293Y173226D01*
X189720Y166878D02*
Y174496D01*
X185911Y170687D01*
X190989D01*
X132588Y147827D02*
Y155445D01*
X136397D01*
X137666Y154175D01*
Y151636D01*
X136397Y150366D01*
X132588D01*
X144014Y147827D02*
X141475D01*
X140205Y149097D01*
Y151636D01*
X141475Y152906D01*
X144014D01*
X145284Y151636D01*
Y150366D01*
X140205D01*
X147823Y147827D02*
Y152906D01*
X151632D01*
X152901Y151636D01*
Y147827D01*
X156710Y154175D02*
Y152906D01*
X155441D01*
X157980D01*
X156710D01*
Y149097D01*
X157980Y147827D01*
X163058Y152906D02*
X165597D01*
X166867Y151636D01*
Y147827D01*
X163058D01*
X161789Y149097D01*
X163058Y150366D01*
X166867D01*
X171945Y145288D02*
X173215D01*
X174484Y146558D01*
Y152906D01*
X170676D01*
X169406Y151636D01*
Y149097D01*
X170676Y147827D01*
X174484D01*
X180832D02*
X178293D01*
X177024Y149097D01*
Y151636D01*
X178293Y152906D01*
X180832D01*
X182102Y151636D01*
Y150366D01*
X177024D01*
X188450Y147827D02*
X185911D01*
X184641Y149097D01*
Y151636D01*
X185911Y152906D01*
X188450D01*
X189720Y151636D01*
Y150366D01*
X184641D01*
X192259Y152906D02*
Y147827D01*
Y150366D01*
X193528Y151636D01*
X194798Y152906D01*
X196068D01*
X137666Y207516D02*
X136397Y208785D01*
X133858D01*
X132588Y207516D01*
Y206246D01*
X133858Y204977D01*
X136397D01*
X137666Y203707D01*
Y202438D01*
X136397Y201168D01*
X133858D01*
X132588Y202438D01*
X140205Y201168D02*
Y206246D01*
X142745Y208785D01*
X145284Y206246D01*
Y201168D01*
Y204977D01*
X140205D01*
X152901Y207516D02*
X151632Y208785D01*
X149093D01*
X147823Y207516D01*
Y206246D01*
X149093Y204977D01*
X151632D01*
X152901Y203707D01*
Y202438D01*
X151632Y201168D01*
X149093D01*
X147823Y202438D01*
X155441Y208785D02*
X160519D01*
X157980D01*
Y201168D01*
X175754Y207516D02*
X174485Y208785D01*
X171945D01*
X170676Y207516D01*
Y202438D01*
X171945Y201168D01*
X174485D01*
X175754Y202438D01*
Y204977D01*
X173215D01*
X183372Y208785D02*
X178293D01*
Y201168D01*
X183372D01*
X178293Y204977D02*
X180832D01*
X185911Y201168D02*
Y208785D01*
X190989Y201168D01*
Y208785D01*
X206224Y201168D02*
X201146D01*
X206224Y206246D01*
Y207516D01*
X204955Y208785D01*
X202415D01*
X201146Y207516D01*
X208763Y201168D02*
Y202438D01*
X210033D01*
Y201168D01*
X208763D01*
X215111Y207516D02*
X216381Y208785D01*
X218920D01*
X220190Y207516D01*
Y202438D01*
X218920Y201168D01*
X216381D01*
X215111Y202438D01*
Y207516D01*
X230346Y208785D02*
Y201168D01*
X234155D01*
X235425Y202438D01*
Y203707D01*
X234155Y204977D01*
X230346D01*
X234155D01*
X235425Y206246D01*
Y207516D01*
X234155Y208785D01*
X230346D01*
X243042D02*
X237964D01*
Y201168D01*
X243042D01*
X237964Y204977D02*
X240503D01*
X245581Y208785D02*
X250660D01*
X248121D01*
Y201168D01*
X253199D02*
Y206246D01*
X255738Y208785D01*
X258277Y206246D01*
Y201168D01*
Y204977D01*
X253199D01*
X137664Y191005D02*
X136394Y192275D01*
X133855D01*
X132585Y191005D01*
Y185927D01*
X133855Y184657D01*
X136394D01*
X137664Y185927D01*
Y188466D01*
X135125D01*
X140203Y189736D02*
Y185927D01*
X141473Y184657D01*
X145281D01*
Y183388D01*
X144012Y182118D01*
X142742D01*
X145281Y184657D02*
Y189736D01*
X147821D02*
Y184657D01*
Y187196D01*
X149090Y188466D01*
X150360Y189736D01*
X151629D01*
X156708Y184657D02*
X159247D01*
X160516Y185927D01*
Y188466D01*
X159247Y189736D01*
X156708D01*
X155438Y188466D01*
Y185927D01*
X156708Y184657D01*
X174482D02*
Y192275D01*
X170673Y188466D01*
X175752D01*
X178291Y184657D02*
Y192275D01*
Y187196D02*
X182099Y189736D01*
X178291Y187196D02*
X182099Y184657D01*
X193526Y188466D02*
X198604D01*
X208761Y184657D02*
Y192275D01*
X211300Y189736D01*
X213839Y192275D01*
Y184657D01*
X216378D02*
Y189736D01*
X218918Y192275D01*
X221457Y189736D01*
Y184657D01*
Y188466D01*
X216378D01*
X229074Y191005D02*
X227805Y192275D01*
X225266D01*
X223996Y191005D01*
Y185927D01*
X225266Y184657D01*
X227805D01*
X229074Y185927D01*
Y188466D01*
X226535D01*
D13*
X244177Y-177252D02*
X242696Y-175771D01*
X239733D01*
X238252Y-177252D01*
Y-183177D01*
X239733Y-184658D01*
X242696D01*
X244177Y-183177D01*
Y-180214D01*
X241214D01*
X247139Y-184658D02*
Y-175771D01*
X253064Y-184658D01*
Y-175771D01*
X256026D02*
Y-184658D01*
X260470D01*
X261951Y-183177D01*
Y-177252D01*
X260470Y-175771D01*
X256026D01*
X170942Y-184658D02*
Y-175771D01*
X173904Y-178733D01*
X176867Y-175771D01*
Y-184658D01*
X179829Y-175771D02*
X182792D01*
X181310D01*
Y-184658D01*
X179829D01*
X182792D01*
X193160Y-177252D02*
X191679Y-175771D01*
X188716D01*
X187235Y-177252D01*
Y-178733D01*
X188716Y-180214D01*
X191679D01*
X193160Y-181696D01*
Y-183177D01*
X191679Y-184658D01*
X188716D01*
X187235Y-183177D01*
X200566Y-175771D02*
X197603D01*
X196122Y-177252D01*
Y-183177D01*
X197603Y-184658D01*
X200566D01*
X202047Y-183177D01*
Y-177252D01*
X200566Y-175771D01*
X104902Y-184658D02*
Y-175771D01*
X107864Y-178733D01*
X110827Y-175771D01*
Y-184658D01*
X118233Y-175771D02*
X115270D01*
X113789Y-177252D01*
Y-183177D01*
X115270Y-184658D01*
X118233D01*
X119714Y-183177D01*
Y-177252D01*
X118233Y-175771D01*
X128601Y-177252D02*
X127120Y-175771D01*
X124157D01*
X122676Y-177252D01*
Y-178733D01*
X124157Y-180214D01*
X127120D01*
X128601Y-181696D01*
Y-183177D01*
X127120Y-184658D01*
X124157D01*
X122676Y-183177D01*
X131563Y-175771D02*
X134526D01*
X133045D01*
Y-184658D01*
X131563D01*
X134526D01*
X52407Y-177252D02*
X50926Y-175771D01*
X47963D01*
X46482Y-177252D01*
Y-178733D01*
X47963Y-180214D01*
X50926D01*
X52407Y-181696D01*
Y-183177D01*
X50926Y-184658D01*
X47963D01*
X46482Y-183177D01*
X61294Y-177252D02*
X59813Y-175771D01*
X56850D01*
X55369Y-177252D01*
Y-183177D01*
X56850Y-184658D01*
X59813D01*
X61294Y-183177D01*
X64256Y-175771D02*
Y-184658D01*
Y-181696D01*
X70181Y-175771D01*
X65737Y-180214D01*
X70181Y-184658D01*
X-6013Y-177252D02*
X-7494Y-175771D01*
X-10457D01*
X-11938Y-177252D01*
Y-183177D01*
X-10457Y-184658D01*
X-7494D01*
X-6013Y-183177D01*
X2874Y-177252D02*
X1393Y-175771D01*
X-1570D01*
X-3051Y-177252D01*
Y-178733D01*
X-1570Y-180214D01*
X1393D01*
X2874Y-181696D01*
Y-183177D01*
X1393Y-184658D01*
X-1570D01*
X-3051Y-183177D01*
X-80518Y-175771D02*
X-77556D01*
X-79037D01*
Y-184658D01*
X-80518D01*
X-77556D01*
X-73112D02*
Y-175771D01*
X-67187Y-184658D01*
Y-175771D01*
X-64225D02*
X-58300D01*
X-61263D01*
Y-184658D01*
X-145288Y-178522D02*
X-143807Y-177041D01*
X-140844D01*
X-139363Y-178522D01*
Y-180003D01*
X-140844Y-181484D01*
X-142326D01*
X-140844D01*
X-139363Y-182966D01*
Y-184447D01*
X-140844Y-185928D01*
X-143807D01*
X-145288Y-184447D01*
X-136401Y-177041D02*
Y-182966D01*
X-133439Y-185928D01*
X-130476Y-182966D01*
Y-177041D01*
X-127514Y-178522D02*
X-126033Y-177041D01*
X-123070D01*
X-121589Y-178522D01*
Y-180003D01*
X-123070Y-181484D01*
X-124551D01*
X-123070D01*
X-121589Y-182966D01*
Y-184447D01*
X-123070Y-185928D01*
X-126033D01*
X-127514Y-184447D01*
X-271018Y-184658D02*
Y-175771D01*
X-268056Y-178733D01*
X-265093Y-175771D01*
Y-184658D01*
X-262131D02*
Y-178733D01*
X-259168Y-175771D01*
X-256206Y-178733D01*
Y-184658D01*
Y-180214D01*
X-262131D01*
X-247319Y-177252D02*
X-248800Y-175771D01*
X-251763D01*
X-253244Y-177252D01*
Y-183177D01*
X-251763Y-184658D01*
X-248800D01*
X-247319Y-183177D01*
Y-180214D01*
X-250281D01*
X-210058Y-184658D02*
Y-175771D01*
X-205614D01*
X-204133Y-177252D01*
Y-180214D01*
X-205614Y-181696D01*
X-210058D01*
X-195246Y-177252D02*
X-196727Y-175771D01*
X-199690D01*
X-201171Y-177252D01*
Y-178733D01*
X-199690Y-180214D01*
X-196727D01*
X-195246Y-181696D01*
Y-183177D01*
X-196727Y-184658D01*
X-199690D01*
X-201171Y-183177D01*
X-192284Y-175771D02*
Y-184658D01*
X-189321Y-181696D01*
X-186359Y-184658D01*
Y-175771D01*
X247439Y-216536D02*
X244476D01*
X245958D01*
Y-223942D01*
X244476Y-225424D01*
X242995D01*
X241514Y-223942D01*
X250401D02*
X251882Y-225424D01*
X254845D01*
X256326Y-223942D01*
Y-218018D01*
X254845Y-216536D01*
X251882D01*
X250401Y-218018D01*
Y-219499D01*
X251882Y-220980D01*
X256326D01*
X182669Y-215266D02*
X179706D01*
X181188D01*
Y-222672D01*
X179706Y-224154D01*
X178225D01*
X176744Y-222672D01*
X185631Y-216748D02*
X187112Y-215266D01*
X190075D01*
X191556Y-216748D01*
Y-218229D01*
X190075Y-219710D01*
X188594D01*
X190075D01*
X191556Y-221191D01*
Y-222672D01*
X190075Y-224154D01*
X187112D01*
X185631Y-222672D01*
X120439Y-215266D02*
X117476D01*
X118958D01*
Y-222672D01*
X117476Y-224154D01*
X115995D01*
X114514Y-222672D01*
X127845Y-224154D02*
Y-215266D01*
X123401Y-219710D01*
X129326D01*
X55669Y-215266D02*
X52706D01*
X54188D01*
Y-222672D01*
X52706Y-224154D01*
X51225D01*
X49744Y-222672D01*
X64556Y-215266D02*
X58631D01*
Y-219710D01*
X61594Y-218229D01*
X63075D01*
X64556Y-219710D01*
Y-222672D01*
X63075Y-224154D01*
X60112D01*
X58631Y-222672D01*
X-7831Y-215266D02*
X-10794D01*
X-9312D01*
Y-222672D01*
X-10794Y-224154D01*
X-12275D01*
X-13756Y-222672D01*
X1056Y-215266D02*
X-1906Y-216748D01*
X-4869Y-219710D01*
Y-222672D01*
X-3388Y-224154D01*
X-425D01*
X1056Y-222672D01*
Y-221191D01*
X-425Y-219710D01*
X-4869D01*
X-71331Y-213996D02*
X-74294D01*
X-72812D01*
Y-221402D01*
X-74294Y-222884D01*
X-75775D01*
X-77256Y-221402D01*
X-68369Y-215478D02*
X-66888Y-213996D01*
X-63925D01*
X-62444Y-215478D01*
Y-216959D01*
X-63925Y-218440D01*
X-62444Y-219921D01*
Y-221402D01*
X-63925Y-222884D01*
X-66888D01*
X-68369Y-221402D01*
Y-219921D01*
X-66888Y-218440D01*
X-68369Y-216959D01*
Y-215478D01*
X-66888Y-218440D02*
X-63925D01*
X-133350Y-215266D02*
X-136312D01*
X-134831D01*
Y-222672D01*
X-136312Y-224154D01*
X-137794D01*
X-139275Y-222672D01*
X-130388Y-224154D02*
X-127425D01*
X-128906D01*
Y-215266D01*
X-130388Y-216748D01*
X-198331Y-215266D02*
X-201294D01*
X-199812D01*
Y-222672D01*
X-201294Y-224154D01*
X-202775D01*
X-204256Y-222672D01*
X-195369Y-215266D02*
X-189444D01*
Y-216748D01*
X-195369Y-222672D01*
Y-224154D01*
X-263101Y-215266D02*
X-266064D01*
X-264582D01*
Y-222672D01*
X-266064Y-224154D01*
X-267545D01*
X-269026Y-222672D01*
X-254214Y-224154D02*
X-260139D01*
X-254214Y-218229D01*
Y-216748D01*
X-255695Y-215266D01*
X-258658D01*
X-260139Y-216748D01*
X-262676Y60324D02*
Y52918D01*
X-261195Y51436D01*
X-258232D01*
X-256751Y52918D01*
Y60324D01*
X-253789Y58842D02*
X-252308Y60324D01*
X-249345D01*
X-247864Y58842D01*
Y57361D01*
X-249345Y55880D01*
X-250826D01*
X-249345D01*
X-247864Y54399D01*
Y52918D01*
X-249345Y51436D01*
X-252308D01*
X-253789Y52918D01*
X-310936Y59056D02*
Y67944D01*
X-306492D01*
X-305011Y66462D01*
Y63500D01*
X-306492Y62019D01*
X-310936D01*
X-307974D02*
X-305011Y59056D01*
X-302049Y66462D02*
X-300568Y67944D01*
X-297605D01*
X-296124Y66462D01*
Y64981D01*
X-297605Y63500D01*
X-299086D01*
X-297605D01*
X-296124Y62019D01*
Y60538D01*
X-297605Y59056D01*
X-300568D01*
X-302049Y60538D01*
X-310936Y86996D02*
Y95884D01*
X-306492D01*
X-305011Y94402D01*
Y91440D01*
X-306492Y89959D01*
X-310936D01*
X-307974D02*
X-305011Y86996D01*
X-297605D02*
Y95884D01*
X-302049Y91440D01*
X-296124D01*
X-220980Y142662D02*
X-222461Y144144D01*
X-225424D01*
X-226905Y142662D01*
Y136738D01*
X-225424Y135256D01*
X-222461D01*
X-220980Y136738D01*
X-218018Y135256D02*
X-215055D01*
X-216536D01*
Y144144D01*
X-218018Y142662D01*
X-246591D02*
X-248072Y144144D01*
X-251035D01*
X-252516Y142662D01*
Y136738D01*
X-251035Y135256D01*
X-248072D01*
X-246591Y136738D01*
X-239185Y135256D02*
Y144144D01*
X-243629Y139700D01*
X-237704D01*
X-178645Y174624D02*
Y167218D01*
X-177164Y165736D01*
X-174201D01*
X-172720Y167218D01*
Y174624D01*
X-169758Y165736D02*
X-166795D01*
X-168276D01*
Y174624D01*
X-169758Y173142D01*
X-158536Y88266D02*
Y97154D01*
X-154092D01*
X-152611Y95672D01*
Y92710D01*
X-154092Y91229D01*
X-158536D01*
X-155574D02*
X-152611Y88266D01*
X-143724D02*
X-149649D01*
X-143724Y94191D01*
Y95672D01*
X-145205Y97154D01*
X-148168D01*
X-149649Y95672D01*
X-152186Y57784D02*
Y50378D01*
X-150705Y48896D01*
X-147742D01*
X-146261Y50378D01*
Y57784D01*
X-137374Y48896D02*
X-143299D01*
X-137374Y54821D01*
Y56302D01*
X-138855Y57784D01*
X-141818D01*
X-143299Y56302D01*
X-131021Y33442D02*
X-132502Y34924D01*
X-135465D01*
X-136946Y33442D01*
Y27518D01*
X-135465Y26036D01*
X-132502D01*
X-131021Y27518D01*
X-122134Y26036D02*
X-128059D01*
X-122134Y31961D01*
Y33442D01*
X-123615Y34924D01*
X-126578D01*
X-128059Y33442D01*
X-202986Y-15874D02*
Y-6986D01*
X-198542D01*
X-197061Y-8468D01*
Y-11430D01*
X-198542Y-12911D01*
X-202986D01*
X-200024D02*
X-197061Y-15874D01*
X-188174Y-6986D02*
X-191136Y-8468D01*
X-194099Y-11430D01*
Y-14392D01*
X-192618Y-15874D01*
X-189655D01*
X-188174Y-14392D01*
Y-12911D01*
X-189655Y-11430D01*
X-194099D01*
X-147320Y-25822D02*
Y-19898D01*
X-148801Y-18416D01*
X-151764D01*
X-153245Y-19898D01*
Y-25822D01*
X-151764Y-27304D01*
X-148801D01*
X-150282Y-24341D02*
X-147320Y-27304D01*
X-148801D02*
X-147320Y-25822D01*
X-144358Y-27304D02*
X-141395D01*
X-142876D01*
Y-18416D01*
X-144358Y-19898D01*
X-233466Y-47624D02*
Y-38736D01*
X-229022D01*
X-227541Y-40218D01*
Y-43180D01*
X-229022Y-44661D01*
X-233466D01*
X-230504D02*
X-227541Y-47624D01*
X-224579Y-38736D02*
X-218654D01*
Y-40218D01*
X-224579Y-46142D01*
Y-47624D01*
X-131021Y-42758D02*
X-132502Y-41276D01*
X-135465D01*
X-136946Y-42758D01*
Y-48682D01*
X-135465Y-50164D01*
X-132502D01*
X-131021Y-48682D01*
X-122134Y-41276D02*
X-128059D01*
Y-45720D01*
X-125096Y-44239D01*
X-123615D01*
X-122134Y-45720D01*
Y-48682D01*
X-123615Y-50164D01*
X-126578D01*
X-128059Y-48682D01*
X-161076Y-83184D02*
Y-74296D01*
X-156632D01*
X-155151Y-75778D01*
Y-78740D01*
X-156632Y-80221D01*
X-161076D01*
X-158114D02*
X-155151Y-83184D01*
X-146264Y-74296D02*
X-152189D01*
Y-78740D01*
X-149226Y-77259D01*
X-147745D01*
X-146264Y-78740D01*
Y-81702D01*
X-147745Y-83184D01*
X-150708D01*
X-152189Y-81702D01*
X-206585Y-121284D02*
Y-112396D01*
X-202141D01*
X-200660Y-113878D01*
Y-116840D01*
X-202141Y-118321D01*
X-206585D01*
X-203622D02*
X-200660Y-121284D01*
X-197698D02*
X-194735D01*
X-196216D01*
Y-112396D01*
X-197698Y-113878D01*
X-230081Y-155788D02*
X-231562Y-154306D01*
X-234525D01*
X-236006Y-155788D01*
Y-161712D01*
X-234525Y-163194D01*
X-231562D01*
X-230081Y-161712D01*
X-227119Y-155788D02*
X-225638Y-154306D01*
X-222675D01*
X-221194Y-155788D01*
Y-157269D01*
X-222675Y-158750D01*
X-224156D01*
X-222675D01*
X-221194Y-160231D01*
Y-161712D01*
X-222675Y-163194D01*
X-225638D01*
X-227119Y-161712D01*
X-100330Y194561D02*
Y187155D01*
X-98849Y185674D01*
X-95886D01*
X-94405Y187155D01*
Y194561D01*
X-86999Y185674D02*
Y194561D01*
X-91443Y190118D01*
X-85518D01*
M02*
