G04*
G04 #@! TF.GenerationSoftware,Altium Limited,Altium Designer,24.2.2 (26)*
G04*
G04 Layer_Color=8388736*
%FSLAX44Y44*%
%MOMM*%
G71*
G04*
G04 #@! TF.SameCoordinates,A8C72FA6-E4A7-4B70-B5D1-2EACB2D35129*
G04*
G04*
G04 #@! TF.FilePolarity,Negative*
G04*
G01*
G75*
%ADD20R,1.6032X0.8032*%
%ADD21R,0.7032X0.8032*%
%ADD22R,1.7032X0.8532*%
%ADD23R,0.8032X0.7032*%
%ADD24R,0.6532X1.6282*%
%ADD25R,0.8024X1.2144*%
%ADD26C,1.9812*%
%ADD27C,0.2032*%
D20*
X-236220Y91390D02*
D03*
Y72390D02*
D03*
X-261220D02*
D03*
Y81890D02*
D03*
Y91390D02*
D03*
D21*
X-285750Y58500D02*
D03*
Y68500D02*
D03*
X-285750Y86360D02*
D03*
Y96360D02*
D03*
X-220980Y114380D02*
D03*
Y124380D02*
D03*
X-236220Y124380D02*
D03*
Y114380D02*
D03*
X-147320Y35480D02*
D03*
Y25480D02*
D03*
X-205740Y-38260D02*
D03*
Y-48260D02*
D03*
X-147320Y-50720D02*
D03*
Y-40720D02*
D03*
X-200660Y-130890D02*
D03*
Y-140890D02*
D03*
D22*
X-199720Y116840D02*
D03*
Y129540D02*
D03*
Y142240D02*
D03*
Y154940D02*
D03*
X-145720D02*
D03*
Y142240D02*
D03*
Y129540D02*
D03*
Y116840D02*
D03*
D23*
X-170260Y92710D02*
D03*
X-180260D02*
D03*
X-177720Y-11430D02*
D03*
X-167720D02*
D03*
X-171530Y-78740D02*
D03*
X-181530D02*
D03*
X-200820Y-158750D02*
D03*
X-210820D02*
D03*
D24*
X-165510Y24870D02*
D03*
X-172010D02*
D03*
X-178510D02*
D03*
X-185010D02*
D03*
Y69110D02*
D03*
X-178510D02*
D03*
X-172010D02*
D03*
X-165510D02*
D03*
D25*
X-167030Y-57890D02*
D03*
X-176530D02*
D03*
X-186030D02*
D03*
Y-31010D02*
D03*
X-176530D02*
D03*
X-167030D02*
D03*
D26*
X248920Y-200660D02*
D03*
X185261D02*
D03*
X121602D02*
D03*
X57944D02*
D03*
X-5715D02*
D03*
X-69374D02*
D03*
X-133033D02*
D03*
X-196691D02*
D03*
X-260350D02*
D03*
X76200Y152400D02*
D03*
Y127000D02*
D03*
Y101600D02*
D03*
Y76200D02*
D03*
Y50800D02*
D03*
Y25400D02*
D03*
Y0D02*
D03*
Y-25400D02*
D03*
Y-50800D02*
D03*
Y-76200D02*
D03*
Y-101600D02*
D03*
Y-127000D02*
D03*
X-76200D02*
D03*
Y-101600D02*
D03*
Y-76200D02*
D03*
Y-50800D02*
D03*
Y-25400D02*
D03*
Y0D02*
D03*
Y25400D02*
D03*
Y50800D02*
D03*
Y76200D02*
D03*
Y101600D02*
D03*
Y127000D02*
D03*
Y152400D02*
D03*
D27*
X248920Y-238760D02*
D03*
X185261D02*
D03*
X121602D02*
D03*
X57944D02*
D03*
X-5715D02*
D03*
X-69374D02*
D03*
X-133033D02*
D03*
X-196691D02*
D03*
X-260350D02*
D03*
X-285750Y285750D02*
D03*
Y0D02*
D03*
X0D02*
D03*
X-285750Y-285750D02*
D03*
X285750D02*
D03*
X0D02*
D03*
X285750Y0D02*
D03*
Y285750D02*
D03*
M02*
