M48
;Layer_Color=9474304
;FILE_FORMAT=4:4
METRIC,LZ
;TYPE=PLATED
T01F00S00C0.4064
T02F00S00C1.0668
T03F00S00C1.0922
;TYPE=NON_PLATED
T04F00S00C1.4986
T05F00S00C3.1750
%
T01
X-0015621Y-0000381
X-0017526Y0000635
X-0023495Y0005715
X-0025781Y0010668
X-0018796Y-0013081
T02
X-000762Y-00127
Y-001016
Y-000762
Y-000508
Y-000254
Y0
Y000254
Y000508
Y000762
Y001016
Y00127
Y001524
X000762
Y00127
Y001016
Y000762
Y000508
Y000254
Y0
Y-000254
Y-000508
Y-000762
Y-001016
Y-00127
T03
X-0026035Y-0020066
X-00196691
X-00133033
X-00069374
X-00005715
X00057944
X00121602
X00185261
X0024892
T04
X-0026035Y-0023876
X-00196691
X-00133033
X-00069374
X-00005715
X00057944
X00121602
X00185261
X0024892
T05
X-0028575Y-0028575
X0
X0028575
Y0
X0
X-0028575
Y0028575
X0028575
M30
